<svg aria-hidden="true" focusable="false" data-prefix="fab" data-icon="logo-svg" class="svg-inline--fa logo-svg" role="img" xmlns="http://www.w3.org/2000/svg" viewBox="0 0 200 80"><defs id="SvgjsDefs7904"></defs><g id="SvgjsG7905" featurekey="symbolContainer" transform="matrix(0.9,0,0,0.9,0,0)" fill="#ffffff"><rect width="75" height="89" rx="8"></rect></g><g id="SvgjsG7906" featurekey="symbolFeature-0" transform="matrix(0.8215961264172583,0,0,0.8215961264172583,-7.579812589143909,-1.3246298177112248)" fill="#000000"><g xmlns="http://www.w3.org/2000/svg"><polygon points="51.3,59.3 48.4,59.3 46.3,57.7 45.4,58.9 47.8,60.8 51.9,60.8 54,58.9 52.9,57.7  "></polygon><path d="M67.1,25.5c0.6-1.6,0.8-3.5-0.2-5c-2-3.1-7.5-7-15.4-6.7C59.2,17.6,64.9,23.1,67.1,25.5z"></path><path d="M42.2,16.9c11.5,0.5,20.3,9.7,22.5,12.3c0.2,0.2,0.3,0.3,0.3,0.3s0.8-1,1.5-2.4c-1.9-2.1-8.6-9-17.9-12.9   c-0.2,0-0.4,0.1-0.6,0.1c-4.2,0.8-7.8,1.7-10.7,3C38.9,17,40.5,16.9,42.2,16.9z"></path><path d="M37.8,41.5C38.1,41.7,38.1,41.7,37.8,41.5L37.8,41.5L37.8,41.5z"></path><path d="M57.8,29.4c-2.5-2-9.6-7.2-16.3-5.4c-4.1,1.1-7,3.9-7.7,7.3c-0.5,2.5,0.3,5.1,2.1,7.3c-1.3-3.7-0.6-9.4,5.6-9.5   C49.5,29,54.1,30.9,57.8,29.4z"></path><path d="M70.3,45.8c-0.7-0.5-1.6-0.5-2.3-0.4l0.3-5.6c0,0,0,0,0-0.1c1-1.9,2-5.3,1.9-7.7c-0.1-3.3-0.4-5.1-1.9-4.8   c-1.4,0.3-2.7,3.3-2.7,3.3s0.7,4.3,1.2,9.2l-0.4,4.9l-2.9,0.2c-2-0.5-3.8-0.8-5.5-0.8c-2.9,0-6.6,1.5-6.6,1.5h-3.3   c-0.9-0.5-2.9-1.5-6.3-1.5c-1.7,0-3.6,0.3-5.6,0.8l-3.1-0.2l-0.6-6.3c0.7,0.4,1.5,0.9,2.3,1.3c-2.2-2.6-3.1-5.7-2.5-8.7   c0.8-4,4.2-7.2,8.8-8.5c8.2-2.2,16.4,4.4,18.3,6.1c0.8-0.3,1.5-0.5,2.1-0.5c-3.6-3.5-10.7-9.3-19.4-9.7c-3.1-0.1-6.2,0.5-9.2,1.7   c-3.1,3.2-3.9,8.3-2.1,17.1l0.9,8c-0.6-0.1-1.4,0-2,0.4c-0.4,0.3-1,1-1,2.2c0,2.8,1.7,9.6,1.8,9.8l0.1,0.3l0.3,0.2   c0.2,0.1,1,0.6,1.8,0.6c0.1,0,0.2,0,0.2,0c0.8,6.7,3.9,21.5,17.1,27.2h0.1c13-5.7,16.1-20.2,16.9-27l0-0.4c0.1,0,0.3,0.1,0.4,0.1   c0.8,0,1.5-0.4,1.7-0.5l0.3-0.2c0,0,1.9-7.4,1.9-10.2C71.3,46.8,70.8,46.1,70.3,45.8z M31.9,57.2c-0.4-1.4-1.7-6.9-1.7-9.1   c0-0.5,0.1-0.8,0.3-1c0.3-0.2,0.9-0.2,1.3-0.1l0.9,8.8c0-0.1,0-0.1-0.1-0.2c0,0,0,0.7,0.1,1.8C32.7,57.4,32.3,57.3,31.9,57.2z    M46.9,74.2c-0.7,0.2-3-0.9-5.8-4l0.1-0.1c0.8-0.5,2.2-1.5,3.8-2.4l1.1,2.5h3.9l0,0.1C49.5,71.3,48,73.9,46.9,74.2z M47,68.7   l-0.6-1.5h7.1l-0.8,1.5H47z M53.2,74.2c-1.2-0.3-2.6-2.8-3.1-3.8l0-0.1h3.5l1.5-2.6c1.7,0.9,3.2,1.9,4,2.5   C56.3,73.3,53.9,74.4,53.2,74.2z M60.3,67.4c-1.4-2.5-6.5-5-7.5-5c-0.8,0-2.5,0.2-2.7,0.2c-0.2,0-1.8-0.2-2.7-0.2c-1,0-6,2.6-7.5,5   c-0.3,0.4-0.3,0.8-0.4,1.2c-1.6-2-3.2-4.6-4.9-8l-1.5-14.4l1.2,0.1c-0.3,1.6-0.7,6,2.7,8.3c1.2,0.8,2.6,1.3,4.1,1.3   c2,0,3.9-0.8,5.2-2.1c0.9-1,2-4.8,2.3-6.5h2.4c0.3,1.7,1.4,5.5,2.3,6.5c1.3,1.4,3.2,2.1,5.2,2.1c1.5,0,2.9-0.4,4.1-1.3   c3.4-2.4,2.9-6.8,2.7-8.4l0.9-0.1l-1,13.8c-1.6,3.5-3.2,6.2-4.8,8.3C60.5,68,60.4,67.7,60.3,67.4z M68.1,57.2   c-0.3,0.1-0.7,0.2-0.8,0.1c0,0-0.1-0.8-0.1-0.8l0.7-9.5c0.3-0.1,1.1-0.2,1.5,0.1c0.2,0.2,0.3,0.5,0.3,1   C69.8,50.3,68.4,55.7,68.1,57.2z"></path></g></g><g id="SvgjsG7907" featurekey="nameFeature-0" transform="matrix(0.8618972790801073,0,0,0.8618972790801073,89.48266119401275,4.484057852426495)" fill="#ffffff"><path d="M8 9.84 l10.72 0 l0 20.32 c0 6 -4.24 10.32 -10.28 10.32 c-3.12 0 -6.56 -1.36 -9 -3.28 l3.72 -9.32 c0.56 1.44 1.2 3.16 2.92 3.16 c1.76 0 1.92 -2 1.92 -3.28 l0 -17.92 z M23.12 18.76 l10.24 0 l0 10.96 c0 1.24 0.08 2.56 1.76 2.56 s1.76 -1.32 1.76 -2.56 l0 -10.96 l10.24 0 l0 12 c0 6.72 -5.84 9.72 -12 9.72 s-12 -3 -12 -9.72 l0 -12 z M63.2 26.36 c-1.72 0 -2.64 1.44 -2.64 3 c0 1.6 0.92 3.04 2.64 3.04 c1.6 0 2.68 -1.68 2.68 -3.12 c0 -1.48 -1.12 -2.92 -2.68 -2.92 z M66.16 40 l0.2 -3.16 l-0.24 0 c-1.72 2.16 -4.16 3.64 -6.92 3.64 c-5.76 0 -8.8 -5.84 -8.8 -10.92 c0 -5.28 2.84 -11.28 8.84 -11.28 c2.4 0 4.96 1.36 6.4 3.32 l0.36 0 l-0.48 -5.08 l0 -8.96 l10.32 0 l0 32.44 l-9.68 0 z M78.2 38.12 l2.64 -6.4 l0.64 0.4 c1.44 0.88 3.52 1.96 5.28 1.96 c0.68 0 1.52 -0.36 1.52 -1.16 c0 -1.16 -1.24 -1.2 -2.08 -1.32 c-3.44 -0.48 -6.64 -1.88 -6.64 -5.88 c0 -5.32 5.36 -7.44 9.92 -7.44 c2.64 0 5.92 0.52 8.24 1.8 l-2.52 5.88 c-1.32 -0.96 -3.08 -1.76 -4.76 -1.76 c-0.64 0 -1.48 0.2 -1.48 0.96 c0 1.04 1.12 1.12 2.56 1.36 c3.68 0.6 6.68 1.88 6.68 6.16 c0 5.52 -5.48 7.8 -10.28 7.8 c-3.36 0 -6.64 -1.04 -9.72 -2.36 z M113.44 18.28 c7 0 12.88 3.92 12.88 11.36 c0 7.04 -6.24 10.84 -12.88 10.84 s-12.88 -3.8 -12.88 -10.84 c0 -7.44 5.88 -11.36 12.88 -11.36 z M113.44 26.36 c-1.72 0 -2.88 1.4 -2.88 3.12 c0 1.68 1.28 2.92 2.88 2.92 s2.88 -1.24 2.88 -2.92 c0 -1.72 -1.16 -3.12 -2.88 -3.12 z M139.8 18.76 l-0.4 3.4 l0.24 0 c2 -2.32 3.52 -3.88 6.84 -3.88 c5.28 0 7.36 3.96 7.36 8.64 l0 13.08 l-10.32 0 l0 -10.36 c0 -1.24 0 -3 -1.76 -3 c-1.72 0 -1.72 1.76 -1.72 3 l0 10.36 l-10.32 0 l0 -21.24 l10.08 0 z M174.96 40 l0 -30.16 l10.96 0 l0 20.48 l9.2 0 l0 9.68 l-20.16 0 z M213.52000000000004 40 l4.88 -30.16 l11.28 0 l4.16 15.84 l0.28 0 c0.2 -1.32 0.4 -2.72 0.76 -4 l3.4 -11.84 l11.16 0 l4.96 30.16 l-10.6 0 l-1.48 -16.52 l-0.2 0 c-0.2 1 -0.4 2.04 -0.72 3 l-4.36 13.52 l-6.4 0 l-3.92 -12.76 c-0.32 -1.28 -0.6 -2.48 -0.68 -3.76 l-0.36 0 c-0.08 1.2 -0.16 2.44 -0.28 3.64 l-1.28 12.88 l-10.6 0 z M269.88 18.28 c7 0 12.88 3.92 12.88 11.36 c0 7.04 -6.24 10.84 -12.88 10.84 s-12.88 -3.8 -12.88 -10.84 c0 -7.44 5.88 -11.36 12.88 -11.36 z M269.88 26.36 c-1.72 0 -2.88 1.4 -2.88 3.12 c0 1.68 1.28 2.92 2.88 2.92 s2.88 -1.24 2.88 -2.92 c0 -1.72 -1.16 -3.12 -2.88 -3.12 z M298.44 18.28 c7 0 12.88 3.92 12.88 11.36 c0 7.04 -6.24 10.84 -12.88 10.84 s-12.88 -3.8 -12.88 -10.84 c0 -7.44 5.88 -11.36 12.88 -11.36 z M298.44 26.36 c-1.72 0 -2.88 1.4 -2.88 3.12 c0 1.68 1.28 2.92 2.88 2.92 s2.88 -1.24 2.88 -2.92 c0 -1.72 -1.16 -3.12 -2.88 -3.12 z M332.20000000000005 18.28 l0 10.48 c-1.08 -0.64 -1.84 -1.16 -3.16 -1.16 c-2.68 0 -4.04 1.6 -4.04 4.24 l0 8.16 l-10.32 0 l0 -21.24 l10.32 0 l-0.24 2.84 l0.24 0 c1.84 -2.8 3.72 -3.4 7.2 -3.32 z M359.08000000000004 31.119999999999997 l-15 0 c0 1.72 0.28 3.64 2.44 3.64 c1.08 0 1.88 -0.76 2.08 -1.76 l10.04 0 c-1.36 5.12 -7.08 7.48 -11.96 7.48 c-6.68 0 -12.8 -3.44 -12.8 -10.76 c0 -7.04 5.44 -11.44 12.2 -11.44 c7.56 0 13.52 4.88 13 12.84 z M344.08000000000004 26.72 l4.84 0 c0 -1.44 -1.04 -2.76 -2.52 -2.76 c-1.56 0 -2.32 1.28 -2.32 2.76 z"></path></g><g id="SvgjsG7908" featurekey="sloganFeature-0" transform="matrix(1.1,0,0,1.1,87.77999916076661,47.92799949645996)" fill="#ffffff"><path d="M12.68 20 l-1.98 0 l-1.54 -4.32 l-5.38 0 l-1.58 4.32 l-2 0 l5.38 -14.12 l1.96 0 z M8.6 14.1 l-2.06 -5.9 l-2.16 5.9 l4.22 0 z M25.14 14.9 c0 0.14 0.02 0.98 -0.12 1.64 c-0.12 0.64 -0.56 2 -2.06 2.96 c-0.58 0.36 -1.62 0.86 -3.28 0.86 c-0.74 0 -1.58 -0.1 -2.3 -0.38 c-1.28 -0.48 -2.32 -1.54 -2.74 -2.86 c-0.2 -0.68 -0.2 -1.18 -0.2 -2.5 l0 -8.74 l1.88 0 l0 8.48 c0 0.54 -0.02 1.1 0.06 1.64 c0.04 0.32 0.2 1.26 0.92 1.94 c0.34 0.32 0.74 0.54 1.18 0.68 c0.5 0.14 1.06 0.14 1.22 0.14 c0.34 0 1.24 0 2.1 -0.56 c1.4 -0.9 1.44 -2.42 1.44 -3.88 l0 -8.44 l1.9 0 l0 9.02 z M37.24 7.52 l-4.22 0 l0 12.48 l-1.88 0 l0 -12.48 l-4.24 0 l0 -1.64 l10.34 0 l0 1.64 z M50.53999999999999 20 l-1.9 0 l0 -6.46 l-7.68 0 l0 6.46 l-1.86 0 l0 -14.12 l1.86 0 l0 6 l7.68 0 l0 -6 l1.9 0 l0 14.12 z M67.33999999999999 12.82 c0 0.74 -0.06 3 -1.48 4.92 c-0.78 1.04 -2.48 2.62 -5.68 2.62 c-0.86 0 -3.04 -0.1 -4.86 -1.8 c-0.94 -0.88 -2.2 -2.58 -2.2 -5.64 c0 -0.8 0.04 -3.24 1.76 -5.18 c1.34 -1.5 3.4 -2.22 5.36 -2.22 c0.96 0 1.92 0.16 2.8 0.5 c2.94 1.14 4.3 3.8 4.3 6.8 z M65.3 12.82 c0 -0.5 0 -2.42 -1.1 -3.92 c-1.3 -1.78 -3.2 -1.86 -3.96 -1.86 c-2.3 0.02 -3.46 1.16 -4 1.94 c-0.78 1.12 -1.08 2.66 -1.08 3.96 c0 1.86 0.56 3.12 0.94 3.74 c0.34 0.52 0.74 0.92 0.9 1.06 c0.58 0.5 1.1 0.72 1.36 0.82 c0.38 0.14 0.96 0.32 1.92 0.32 c0.36 0 1.24 -0.02 2.14 -0.42 c1.36 -0.62 2.9 -2.26 2.88 -5.64 z M81.48 20 l-2.24 0 l-3.86 -6 l-3.64 0 l0 6 l-1.84 0 l0 -14.12 l5.26 0 c0.44 0 0.9 -0.02 1.34 0 c1.96 0.08 2.88 0.7 3.48 1.42 c0.38 0.46 0.86 1.3 0.86 2.7 c0 0.58 -0.08 2.5 -1.88 3.42 c-0.34 0.18 -0.68 0.32 -1.44 0.46 z M78.98 10 c0 -0.4 -0.04 -1.5 -1.12 -2.16 c-0.74 -0.44 -1.62 -0.4 -2.46 -0.4 l-3.66 0 l0 4.98 l3.76 0 c1.06 0 2.32 0.02 3.04 -0.96 c0.32 -0.44 0.44 -0.92 0.44 -1.46 z M99.78 20 l-1.98 0 l-1.54 -4.32 l-5.38 0 l-1.58 4.32 l-2 0 l5.38 -14.12 l1.96 0 z M95.7 14.1 l-2.06 -5.9 l-2.16 5.9 l4.22 0 z M112.62 20 l-1.7 0 l-7.74 -11.48 l0.18 11.48 l-1.78 0 l0 -14.12 l1.78 0 l7.64 11.32 l-0.08 -11.32 l1.7 0 l0 14.12 z M127.34 12.96 c0 0.78 -0.06 1.66 -0.24 2.42 c-0.24 1 -1.06 3.54 -4.06 4.36 c-0.62 0.18 -1.12 0.24 -2.36 0.24 c-0.46 0 -0.92 0.02 -1.36 0.02 l-3.58 0 l0 -14.12 l5.6 0 c0.72 0 2.28 0.04 3.8 1.32 c1.08 0.92 2.2 2.58 2.2 5.76 z M125.42 12.940000000000001 c0 -1.3 -0.24 -2.88 -1.1 -3.94 c-0.22 -0.26 -0.44 -0.48 -0.7 -0.66 c-0.52 -0.38 -0.96 -0.52 -1.2 -0.58 c-0.66 -0.2 -1.2 -0.22 -2.52 -0.22 l-2.22 0 l0 10.82 l3.34 0 c0.52 0 2.1 -0.06 3.18 -1.32 c0.64 -0.72 1.22 -1.96 1.22 -4.1 z M144.32 7.52 l-4.22 0 l0 12.48 l-1.88 0 l0 -12.48 l-4.24 0 l0 -1.64 l10.34 0 l0 1.64 z M157.74 20 l-2.24 0 l-3.86 -6 l-3.64 0 l0 6 l-1.84 0 l0 -14.12 l5.26 0 c0.44 0 0.9 -0.02 1.34 0 c1.96 0.08 2.88 0.7 3.48 1.42 c0.38 0.46 0.86 1.3 0.86 2.7 c0 0.58 -0.08 2.5 -1.88 3.42 c-0.34 0.18 -0.68 0.32 -1.44 0.46 z M155.24 10 c0 -0.4 -0.04 -1.5 -1.12 -2.16 c-0.74 -0.44 -1.62 -0.4 -2.46 -0.4 l-3.66 0 l0 4.98 l3.76 0 c1.06 0 2.32 0.02 3.04 -0.96 c0.32 -0.44 0.44 -0.92 0.44 -1.46 z M170.62 20 l-1.98 0 l-1.54 -4.32 l-5.38 0 l-1.58 4.32 l-2 0 l5.38 -14.12 l1.96 0 z M166.54 14.1 l-2.06 -5.9 l-2.16 5.9 l4.22 0 z M182.7 5.880000000000001 l-4.98 14.12 l-1.86 0 l-4.78 -14.12 l2 0 l3.74 11.8 l3.88 -11.8 l2 0 z M194.48 20 l-9.96 0 l0 -14.12 l9.72 0 l0 1.66 l-7.92 0 l0 4.36 l6.88 0 l0 1.64 l-6.88 0 l0 4.82 l8.16 0 l0 1.64 z M205.10000000000002 20 l-8.72 0 l0 -14.12 l1.88 0 l0 12.44 l6.84 0 l0 1.68 z M223.54 20 l-1.98 0 l-1.54 -4.32 l-5.38 0 l-1.58 4.32 l-2 0 l5.38 -14.12 l1.96 0 z M219.45999999999998 14.1 l-2.06 -5.9 l-2.16 5.9 l4.22 0 z M236.93999999999997 12.96 c0 0.78 -0.06 1.66 -0.24 2.42 c-0.24 1 -1.06 3.54 -4.06 4.36 c-0.62 0.18 -1.12 0.24 -2.36 0.24 c-0.46 0 -0.92 0.02 -1.36 0.02 l-3.58 0 l0 -14.12 l5.6 0 c0.72 0 2.28 0.04 3.8 1.32 c1.08 0.92 2.2 2.58 2.2 5.76 z M235.01999999999998 12.940000000000001 c0 -1.3 -0.24 -2.88 -1.1 -3.94 c-0.22 -0.26 -0.44 -0.48 -0.7 -0.66 c-0.52 -0.38 -0.96 -0.52 -1.2 -0.58 c-0.66 -0.2 -1.2 -0.22 -2.52 -0.22 l-2.22 0 l0 10.82 l3.34 0 c0.52 0 2.1 -0.06 3.18 -1.32 c0.64 -0.72 1.22 -1.96 1.22 -4.1 z M251.09999999999997 12.96 c0 0.78 -0.06 1.66 -0.24 2.42 c-0.24 1 -1.06 3.54 -4.06 4.36 c-0.62 0.18 -1.12 0.24 -2.36 0.24 c-0.46 0 -0.92 0.02 -1.36 0.02 l-3.58 0 l0 -14.12 l5.6 0 c0.72 0 2.28 0.04 3.8 1.32 c1.08 0.92 2.2 2.58 2.2 5.76 z M249.17999999999998 12.940000000000001 c0 -1.3 -0.24 -2.88 -1.1 -3.94 c-0.22 -0.26 -0.44 -0.48 -0.7 -0.66 c-0.52 -0.38 -0.96 -0.52 -1.2 -0.58 c-0.66 -0.2 -1.2 -0.22 -2.52 -0.22 l-2.22 0 l0 10.82 l3.34 0 c0.52 0 2.1 -0.06 3.18 -1.32 c0.64 -0.72 1.22 -1.96 1.22 -4.1 z M255.33999999999997 20 l-1.9 0 l0 -14.12 l1.9 0 l0 14.12 z M271.5199999999999 14.879999999999999 c-0.04 0.2 -0.14 0.62 -0.34 1.12 c-0.36 0.92 -1.58 3.22 -4.36 4.04 c-1 0.3 -1.88 0.32 -2.26 0.32 c-2.5 0 -3.92 -1 -4.68 -1.7 c-0.94 -0.88 -2.22 -2.64 -2.22 -5.72 c0 -4.4 2.66 -7.42 7.14 -7.42 c0.8 0 3.46 0.06 5.2 2.1 c0.58 0.68 0.94 1.4 1.24 2.22 l-1.9 0.38 c-0.24 -0.68 -0.46 -1.06 -0.64 -1.32 c-0.5 -0.7 -1.7 -1.88 -3.92 -1.88 c-0.34 0 -1.2 0.04 -2.06 0.4 c-2.96 1.26 -2.98 4.64 -2.98 5.42 c0 3.4 1.62 5 3 5.58 c0.36 0.14 1.04 0.36 2.06 0.36 c0.24 0 0.8 0 1.44 -0.18 c0.56 -0.16 1.88 -0.7 2.66 -2.16 c0.22 -0.42 0.4 -0.88 0.58 -1.8 z M282.5199999999999 7.52 l-4.22 0 l0 12.48 l-1.88 0 l0 -12.48 l-4.24 0 l0 -1.64 l10.34 0 l0 1.64 z"></path></g></svg>