<svg height="460" width="490" xmlns="https://www.w3.org/2000/svg"><g transform="translate(0 -592.36218)"><path d="m92.036507 927.90216h309.178863v53.14961h-309.178863z"/><text fill="#fff" font-family="Sans" font-size="22.5" font-weight="bold" text-anchor="middle" x="245.77847" y="593.61609"><tspan font-family="Sans" font-weight="bold" text-anchor="middle" x="244.60449" y="960.59637">meta search engine</tspan></text><path d="m258.32283 1031.9691-6.73229-20.1969h13.46457z"/><path d="m259.20865 978.81949v36.99211h-1.77165v-36.99211z"/><text font-family="Sans" font-size="22.5" text-anchor="end" x="110.78586" y="594.86676"><tspan font-family="Sans" text-anchor="end" x="201.84537" y="1013.6502">query</tspan></text><path d="m231.67716 981.05177 6.73228 20.19683h-13.46456z"/><path d="m230.79133 1034.2014v-36.99215h1.77166v36.99215z"/><text font-family="Sans" font-size="22.5" x="11.382186" y="597.98486"><tspan font-family="Sans" x="284.22305" y="1013.6502">response</tspan></text><path d="m158.04326 927.90216-20.19685-6.73228 8.07874-10.77165z"/><path d="m87.177119 874.75256 20.196851 6.73228-8.078741 10.77166z"/><path d="m144.57869 918.90217-45.000001-33.73229 1.062991-1.41732 45 33.73228z"/><path d="m246.62593 927.90216-6.73228-20.19685h13.46457z"/><path d="m246.62593 874.75256 6.73229 20.19685h-13.46457z"/><path d="m245.74011 911.74468v-20.83464h1.77165v20.83464z"/><path d="m335.20861 927.90216 12.11811-17.50393 8.07875 10.77165z"/><path d="m406.07476 874.75256-12.11811 17.50394-8.07874-10.77166z"/><path d="m347.61018 917.48484 45.00001-33.73228 1.063 1.41732-45.00002 33.73229z"/><path d="m16.310979 839.31949h141.732281v35.43307h-141.732281z"/><text fill="#fff" font-family="Sans" font-size="16.263779" font-weight="bold" text-anchor="middle" x="125.63203" y="594.86676"><tspan font-family="Sans" font-weight="bold" text-anchor="middle" x="87.145355" y="862.74072">search engine</tspan></text><path d="m51.744049 750.73681-1.62992-21.2244 13.0748 3.25984z"/><path d="m70.310979 680.08328-13.78347 55.20472-1.73622-.4252 13.8189-55.20472z"/><path d="m38.314909 750.73681-1.24015.0709-1.20473.2126-1.20472.35433-1.16929.49606-1.13386.60237-1.09843.67322-1.02756.81496-.95669.88583-.88583.95669-.81496 1.02756-.67322 1.09843-.60237 1.13386-.49606 1.16929-.35433 1.20472-.2126 1.20473-.0709 1.24015v9.14174l.0709 1.24015.2126 1.20473.35433 1.20472.49606 1.20473.60237 1.13385.67322 1.063.81496 1.06299.88583.95669.95669.88583 1.02756.77953 1.09843.70866 1.13386.60236 1.16929.49606 1.20472.35433 1.20473.2126 1.24015.0709h26.85827l1.24016-.0709 1.20472-.2126 1.20473-.35433 1.20472-.49606 1.13386-.60236 1.06299-.70866 1.06299-.77953.9567-.88583.88582-.95669.77953-1.06299.70866-1.063.60237-1.13385.49606-1.20473.35433-1.20472.2126-1.20473.0709-1.24015v-9.14174l-.0709-1.24015-.2126-1.20473-.35433-1.20472-.49606-1.16929-.60237-1.13386-.70866-1.09843-.77953-1.02756-.88582-.95669-.9567-.88583-1.06299-.81496-1.06299-.67322-1.13386-.60237-1.20472-.49606-1.20473-.35433-1.20472-.2126-1.24016-.0709z" fill="#4c4c4c"/><path d="m51.744049 839.31949-6.73229-20.19685h13.46457z"/><path d="m51.744049 786.16988 6.73228 20.19685h-13.46457z"/><path d="m50.858219 823.16201v-20.83465h1.77165v20.83465z"/><path d="m122.61019 839.31949-6.73229-20.19685h13.46457z"/><path d="m122.61019 786.16988 6.73228 20.19685h-13.46457z"/><path d="m121.72436 823.16201v-20.83465h1.77165v20.83465z"/><path d="m109.18105 750.73681-1.24015.0709-1.20473.2126-1.20472.35433-1.16929.49606-1.13386.60237-1.09843.67322-1.02756.81496-.95669.88583-.885831.95669-.81496 1.02756-.67322 1.09843-.60237 1.13386-.49606 1.16929-.35433 1.20472-.2126 1.20473-.0709 1.24015v9.14174l.0709 1.24015.2126 1.20473.35433 1.20472.49606 1.20473.60237 1.13385.67322 1.063.81496 1.06299.885831.95669.95669.88583 1.02756.77953 1.09843.70866 1.13386.60236 1.16929.49606 1.20472.35433 1.20473.2126 1.24015.0709h26.85827l1.24016-.0709 1.20472-.2126 1.20473-.35433 1.20472-.49606 1.13386-.60236 1.06299-.70866 1.06299-.77953.9567-.88583.88582-.95669.77953-1.06299.70866-1.063.60236-1.13385.49607-1.20473.35433-1.20472.2126-1.20473.0709-1.24015v-9.14174l-.0709-1.24015-.2126-1.20473-.35433-1.20472-.49607-1.16929-.60236-1.13386-.70866-1.09843-.77953-1.02756-.88582-.95669-.9567-.88583-1.06299-.81496-1.06299-.67322-1.13386-.60237-1.20472-.49606-1.20473-.35433-1.20472-.2126-1.24016-.0709z" fill="#4c4c4c"/><path d="m122.61019 750.73681-6.73229-20.19685h13.46457z"/><path d="m123.49601 679.87068v54.70865h-1.77165v-54.70865z"/><path d="m175.75979 839.31949h141.73228v35.43307h-141.73228z"/><text fill="#fff" font-family="Sans" font-size="16.263779" font-weight="bold" text-anchor="middle" x="125.63203" y="594.86676"><tspan font-family="Sans" font-weight="bold" text-anchor="middle" x="246.59418" y="862.74072">search engine</tspan></text><path d="m211.19286 750.73681-6.73228-20.19685h13.46457z"/><path d="m212.07869 679.87068v54.70865h-1.77165v-54.70865z"/><path d="m197.76373 750.73681-1.24016.0709-1.20472.2126-1.20473.35433-1.16929.49606-1.13386.60237-1.09842.67322-1.02756.81496-.95669.88583-.88583.95669-.81496 1.02756-.67323 1.09843-.60236 1.13386-.49606 1.16929-.35434 1.20472-.21259 1.20473-.0709 1.24015v9.14174l.0709 1.24015.21259 1.20473.35434 1.20472.49606 1.20473.60236 1.13385.67323 1.063.81496 1.06299.88583.95669.95669.88583 1.02756.77953 1.09842.70866 1.13386.60236 1.16929.49606 1.20473.35433 1.20472.2126 1.24016.0709h26.85827l1.24015-.0709 1.20473-.2126 1.20472-.35433 1.20473-.49606 1.13385-.60236 1.063-.70866 1.06299-.77953.95669-.88583.88583-.95669.77953-1.06299.70866-1.063.60236-1.13385.49606-1.20473.35433-1.20472.2126-1.20473.0709-1.24015v-9.14174l-.0709-1.24015-.2126-1.20473-.35433-1.20472-.49606-1.16929-.60236-1.13386-.70866-1.09843-.77953-1.02756-.88583-.95669-.95669-.88583-1.06299-.81496-1.063-.67322-1.13385-.60237-1.20473-.49606-1.20472-.35433-1.20473-.2126-1.24015-.0709z" fill="#4c4c4c"/><path d="m211.19286 839.31949-6.73228-20.19685h13.46457z"/><path d="m211.19286 786.16988 6.73229 20.19685h-13.46457z"/><path d="m210.30704 823.16201v-20.83465h1.77165v20.83465z"/><path d="m282.059 839.31949-6.73228-20.19685h13.46457z"/><path d="m282.059 786.16988 6.73229 20.19685h-13.46457z"/><path d="m281.17318 823.16201v-20.83465h1.77165v20.83465z"/><path d="m268.62987 750.73681-1.24016.0709-1.20472.2126-1.20473.35433-1.16929.49606-1.13386.60237-1.09842.67322-1.02756.81496-.95669.88583-.88583.95669-.81496 1.02756-.67323 1.09843-.60236 1.13386-.49606 1.16929-.35434 1.20472-.21259 1.20473-.0709 1.24015v9.14174l.0709 1.24015.21259 1.20473.35434 1.20472.49606 1.20473.60236 1.13385.67323 1.063.81496 1.06299.88583.95669.95669.88583 1.02756.77953 1.09842.70866 1.13386.60236 1.16929.49606 1.20473.35433 1.20472.2126 1.24016.0709h26.85827l1.24015-.0709 1.20473-.2126 1.20472-.35433 1.20473-.49606 1.13385-.60236 1.063-.70866 1.06299-.77953.95669-.88583.88583-.95669.77953-1.06299.70866-1.063.60236-1.13385.49606-1.20473.35433-1.20472.2126-1.20473.0709-1.24015v-9.14174l-.0709-1.24015-.2126-1.20473-.35433-1.20472-.49606-1.16929-.60236-1.13386-.70866-1.09843-.77953-1.02756-.88583-.95669-.95669-.88583-1.06299-.81496-1.063-.67322-1.13385-.60237-1.20473-.49606-1.20472-.35433-1.20473-.2126-1.24015-.0709z" fill="#4c4c4c"/><path d="m282.059 750.73681-6.73228-20.19685h13.46457z"/><path d="m282.94483 679.87068v54.70865h-1.77165v-54.70865z"/><path d="m335.20861 839.31949h141.73229v35.43307h-141.73229z"/><text fill="#fff" font-family="Sans" font-size="16.263779" font-weight="bold" text-anchor="middle" x="125.63203" y="594.86676"><tspan font-family="Sans" font-weight="bold" text-anchor="middle" x="406.04297" y="862.74072">search engine</tspan></text><path d="m370.64169 750.73681-6.73228-20.19685h13.46456z"/><path d="m371.52752 662.15414v72.42519h-1.77166v-72.42519z"/><path d="m357.21256 750.73681-1.24016.0709-1.20472.2126-1.20473.35433-1.16929.49606-1.13387.60237-1.09843.67322-1.02756.81496-.95669.88583-.88583.95669-.81496 1.02756-.67322 1.09843-.60237 1.13386-.49606 1.16929-.35433 1.20472-.2126 1.20473-.0709 1.24015v9.14174l.0709 1.24015.2126 1.20473.35433 1.20472.49606 1.20473.60237 1.13385.67322 1.063.81496 1.06299.88583.95669.95669.88583 1.02756.77953 1.09843.70866 1.13387.60236 1.16929.49606 1.20473.35433 1.20472.2126 1.24016.0709h26.85827l1.24015-.0709 1.20473-.2126 1.20472-.35433 1.20473-.49606 1.13385-.60236 1.063-.70866 1.06299-.77953.95669-.88583.88583-.95669.77953-1.06299.70866-1.063.60236-1.13385.49606-1.20473.35433-1.20472.2126-1.20473.0709-1.24015v-9.14174l-.0709-1.24015-.2126-1.20473-.35433-1.20472-.49606-1.16929-.60236-1.13386-.70866-1.09843-.77953-1.02756-.88583-.95669-.95669-.88583-1.06299-.81496-1.063-.67322-1.13385-.60237-1.20473-.49606-1.20472-.35433-1.20473-.2126-1.24015-.0709z" fill="#4c4c4c"/><path d="m370.64169 839.31949-6.73228-20.19685h13.46456z"/><path d="m370.64169 786.16988 6.73228 20.19685h-13.46456z"/><path d="m369.75586 823.16201v-20.83465h1.77166v20.83465z"/><path d="m441.50783 839.31949-6.73228-20.19685h13.46456z"/><path d="m441.50783 786.16988 6.73228 20.19685h-13.46456z"/><path d="m440.622 823.16201v-20.83465h1.77166v20.83465z"/><path d="m428.0787 750.73681-1.24016.0709-1.20472.2126-1.20473.35433-1.16929.49606-1.13386.60237-1.09842.67322-1.02756.81496-.95669.88583-.88583.95669-.81496 1.02756-.67323 1.09843-.60236 1.13386-.49607 1.16929-.35433 1.20472-.21259 1.20473-.0709 1.24015v9.14174l.0709 1.24015.21259 1.20473.35433 1.20472.49607 1.20473.60236 1.13385.67323 1.063.81496 1.06299.88583.95669.95669.88583 1.02756.77953 1.09842.70866 1.13386.60236 1.16929.49606 1.20473.35433 1.20472.2126 1.24016.0709h26.85827l1.24015-.0709 1.20473-.2126 1.20472-.35433 1.20473-.49606 1.13385-.60236 1.063-.70866 1.06299-.77953.95669-.88583.88583-.95669.77953-1.06299.70866-1.063.60236-1.13385.49606-1.20473.35433-1.20472.2126-1.20473.0709-1.24015v-9.14174l-.0709-1.24015-.2126-1.20473-.35433-1.20472-.49606-1.16929-.60236-1.13386-.70866-1.09843-.77953-1.02756-.88583-.95669-.95669-.88583-1.06299-.81496-1.063-.67322-1.13385-.60237-1.20473-.49606-1.20472-.35433-1.20473-.2126-1.24015-.0709z" fill="#4c4c4c"/><path d="m441.50783 750.73681-13.74803-16.26377 12.50787-4.99607z"/><path d="m406.88972 661.83524 29.44488 73.55906-1.66535.67322-29.40945-73.59448z"/><path d="m172.04621 612.27299c-22.22557.80016-45.01224 1.31139-66.25064 8.47079-4.50317 2.22688-10.780881 2.60143-12.089691 8.46702-.33347 4.84206-4.61561 3.06548-8.34717 3.31219-19.91325.9435-40.5371.48835-59.45957 7.438-4.49452 2.18402-9.45977 3.96242-10.7712 9.40185-1.50177 3.10219 1.74317 7.48068 4.32262 9.07221 11.59306 5.44193 24.42035 7.24141 36.97065 9.15044-3.31013 1.59032-8.02076 4.32612-5.25 8.59375 7.69665 8.70916 19.40933 12.06073 30.50804 13.91285 20.687421 3.99797 41.911671 5.34348 62.949691 4.76371 16.1038-1.14973 32.39049.16259 48.29227-3.33281 11.57674 5.80508 25.10126 5.6809 37.7533 6.18095 10.63762-1.19627 21.92606-.2931 31.40295-6.21215 15.12557 1.82386 30.36805 2.10097 45.54966 2.60968 24.06773-1.0446 48.72597-1.55191 71.76275-9.26593 4.97328-3.15695 10.13938-5.31918 16.10256-4.54902 17.71763-.007 35.20672-3.17387 52.5224-6.51348 4.7886-2.69738 10.95073-4.038 12.41167-10.17013 1.50208-3.01431-1.89092-6.52929-3.53653-8.82992-13.38432-5.99995-27.86911-8.76382-42.37498-10.375 4.91223-.66341 9.84458-5.74099 6.49548-10.62842-.72843-5.61152-5.49485-7.03562-10.26981-8.0112-17.35955-5.68302-35.72996-7.86795-53.92729-7.82138-15.34913.87667-30.98474 1.53128-45.64745 6.336-5.10631.94959-9.42352-1.295-13.99545-2.93476-15.77914-1.32099-31.8119-4.67464-47.49921-.81524-6.49805.87407-11.92104-2.14219-18.42214-2.76183-19.46269-4.64392-39.33846-4.55485-59.20291-5.48817z" fill="#fff" stroke="#000" stroke-width="3.5"/><text font-family="Sans" font-size="22.5" font-weight="bold" text-anchor="middle" x="120.53659" y="592.77942"><tspan font-family="Sans" font-weight="bold" text-anchor="middle" x="237.36731" y="661.12982">resources</tspan></text></g></svg>