<svg version="1.1" viewBox="0.0 0.0 1105.0 683.0" fill="none" stroke="none" stroke-linecap="square" stroke-miterlimit="10" width="1105" height="683" xmlns:xlink="http://www.w3.org/1999/xlink" xmlns="http://www.w3.org/2000/svg"><path fill="#ffffff" d="M0 0L1105.0 0L1105.0 683.0L0 683.0L0 0Z" fill-rule="nonzero"/><path stroke="#333333" stroke-width="1.0" stroke-linecap="butt" d="M68.5 641.5L1070.5 641.5" fill-rule="nonzero"/><path stroke="#cccccc" stroke-width="1.0" stroke-linecap="butt" d="M68.5 521.5L1070.5 521.5" fill-rule="nonzero"/><path stroke="#cccccc" stroke-width="1.0" stroke-linecap="butt" d="M68.5 401.5L1070.5 401.5" fill-rule="nonzero"/><path stroke="#cccccc" stroke-width="1.0" stroke-linecap="butt" d="M68.5 281.5L1070.5 281.5" fill-rule="nonzero"/><path stroke="#cccccc" stroke-width="1.0" stroke-linecap="butt" d="M68.5 161.5L1070.5 161.5" fill-rule="nonzero"/><path stroke="#cccccc" stroke-width="1.0" stroke-linecap="butt" d="M68.5 41.5L1070.5 41.5" fill-rule="nonzero"/><clipPath id="id_0"><path d="M68.15 41.65L1070.85 41.65L1070.85 641.35L68.15 641.35L68.15 41.65Z" clip-rule="nonzero"/></clipPath><path stroke="#4285f4" stroke-width="2.0" stroke-linecap="butt" clip-path="url(#id_0)" d="M118.285 640.3905C118.285 640.3905 185.13167 639.9107 218.555 639.43097C251.97833 638.9512 285.40167 638.47144 318.825 637.5119C352.24832 636.5524 385.67166 635.5929 419.095 633.6738C452.51834 631.7548 485.94168 629.83575 519.365 625.9977C552.7883 622.1596 586.2117 618.32153 619.635 610.6454C653.05835 602.9692 686.4817 595.293 719.905 579.94073C753.3283 564.5884 786.75165 549.2361 820.175 518.53143C853.5983 487.8268 887.02167 457.12216 920.445 395.7129C953.86835 334.3036 1020.715 150.07576 1020.715 150.07576" fill-rule="nonzero"/><path stroke="#db4437" stroke-width="2.0" stroke-linecap="butt" clip-path="url(#id_0)" d="M118.285 640.48645C118.285 640.48645 185.13167 640.118 218.555 639.7956C251.97833 639.4732 285.40167 639.1324 318.825 638.55206C352.24832 637.97174 385.67166 637.3582 419.095 636.31366C452.51834 635.2691 485.94168 634.16486 519.365 632.2846C552.7883 630.40436 586.2117 628.4167 619.635 625.0323C653.05835 621.6479 686.4817 618.07007 719.905 611.97815C753.3283 605.88617 786.75165 599.4461 820.175 588.48065C853.5983 577.51514 887.02167 565.92303 920.445 546.1851C953.86835 526.44727 1020.715 470.05325 1020.715 470.05325" fill-rule="nonzero"/><path fill="#000000" fill-opacity="0.0" clip-path="url(#id_0)" d="M121.285 640.3905C121.285 642.04736 119.94186 643.3905 118.285 643.3905C116.62814 643.3905 115.285 642.04736 115.285 640.3905C115.285 638.73364 116.62814 637.3905 118.285 637.3905C119.94186 637.3905 121.285 638.73364 121.285 640.3905Z" fill-rule="nonzero"/><path fill="#000000" fill-opacity="0.0" clip-path="url(#id_0)" d="M221.555 639.43097C221.555 641.0878 220.21185 642.43097 218.555 642.43097C216.89815 642.43097 215.555 641.0878 215.555 639.43097C215.555 637.7741 216.89815 636.43097 218.555 636.43097C220.21185 636.43097 221.555 637.7741 221.555 639.43097Z" fill-rule="nonzero"/><path fill="#000000" fill-opacity="0.0" clip-path="url(#id_0)" d="M321.825 637.5119C321.825 639.16876 320.48184 640.5119 318.825 640.5119C317.16815 640.5119 315.825 639.16876 315.825 637.5119C315.825 635.85504 317.16815 634.5119 318.825 634.5119C320.48184 634.5119 321.825 635.85504 321.825 637.5119Z" fill-rule="nonzero"/><path fill="#000000" fill-opacity="0.0" clip-path="url(#id_0)" d="M422.095 633.6738C422.095 635.3307 420.75186 636.6738 419.095 636.6738C417.43814 636.6738 416.095 635.3307 416.095 633.6738C416.095 632.01697 417.43814 630.6738 419.095 630.6738C420.75186 630.6738 422.095 632.01697 422.095 633.6738Z" fill-rule="nonzero"/><path fill="#000000" fill-opacity="0.0" clip-path="url(#id_0)" d="M522.365 625.9977C522.365 627.65454 521.02185 628.9977 519.365 628.9977C517.7081 628.9977 516.365 627.65454 516.365 625.9977C516.365 624.3408 517.7081 622.9977 519.365 622.9977C521.02185 622.9977 522.365 624.3408 522.365 625.9977Z" fill-rule="nonzero"/><path fill="#000000" fill-opacity="0.0" clip-path="url(#id_0)" d="M622.635 610.6454C622.635 612.3022 621.2919 613.6454 619.635 613.6454C617.97815 613.6454 616.635 612.3022 616.635 610.6454C616.635 608.9885 617.97815 607.6454 619.635 607.6454C621.2919 607.6454 622.635 608.9885 622.635 610.6454Z" fill-rule="nonzero"/><path fill="#000000" fill-opacity="0.0" clip-path="url(#id_0)" d="M722.905 579.94073C722.905 581.5976 721.5618 582.94073 719.905 582.94073C718.24817 582.94073 716.905 581.5976 716.905 579.94073C716.905 578.2839 718.24817 576.94073 719.905 576.94073C721.5618 576.94073 722.905 578.2839 722.905 579.94073Z" fill-rule="nonzero"/><path fill="#000000" fill-opacity="0.0" clip-path="url(#id_0)" d="M823.175 518.53143C823.175 520.1883 821.83185 521.53143 820.175 521.53143C818.5181 521.53143 817.175 520.1883 817.175 518.53143C817.175 516.8746 818.5181 515.53143 820.175 515.53143C821.83185 515.53143 823.175 516.8746 823.175 518.53143Z" fill-rule="nonzero"/><path fill="#000000" fill-opacity="0.0" clip-path="url(#id_0)" d="M923.445 395.7129C923.445 397.36972 922.10187 398.7129 920.445 398.7129C918.78815 398.7129 917.445 397.36972 917.445 395.7129C917.445 394.05603 918.78815 392.7129 920.445 392.7129C922.10187 392.7129 923.445 394.05603 923.445 395.7129Z" fill-rule="nonzero"/><path fill="#000000" fill-opacity="0.0" clip-path="url(#id_0)" d="M1023.715 150.07576C1023.715 151.73262 1022.3718 153.07576 1020.715 153.07576C1019.05817 153.07576 1017.715 151.73262 1017.715 150.07576C1017.715 148.4189 1019.05817 147.07576 1020.715 147.07576C1022.3718 147.07576 1023.715 148.4189 1023.715 150.07576Z" fill-rule="nonzero"/><path fill="#000000" fill-opacity="0.0" clip-path="url(#id_0)" d="M121.285 640.48645C121.285 642.1433 119.94186 643.48645 118.285 643.48645C116.62814 643.48645 115.285 642.1433 115.285 640.48645C115.285 638.8296 116.62814 637.48645 118.285 637.48645C119.94186 637.48645 121.285 638.8296 121.285 640.48645Z" fill-rule="nonzero"/><path fill="#000000" fill-opacity="0.0" clip-path="url(#id_0)" d="M221.555 639.7956C221.555 641.45245 220.21185 642.7956 218.555 642.7956C216.89815 642.7956 215.555 641.45245 215.555 639.7956C215.555 638.13873 216.89815 636.7956 218.555 636.7956C220.21185 636.7956 221.555 638.13873 221.555 639.7956Z" fill-rule="nonzero"/><path fill="#000000" fill-opacity="0.0" clip-path="url(#id_0)" d="M321.825 638.55206C321.825 640.2089 320.48184 641.55206 318.825 641.55206C317.16815 641.55206 315.825 640.2089 315.825 638.55206C315.825 636.8952 317.16815 635.55206 318.825 635.55206C320.48184 635.55206 321.825 636.8952 321.825 638.55206Z" fill-rule="nonzero"/><path fill="#000000" fill-opacity="0.0" clip-path="url(#id_0)" d="M422.095 636.31366C422.095 637.9705 420.75186 639.31366 419.095 639.31366C417.43814 639.31366 416.095 637.9705 416.095 636.31366C416.095 634.6568 417.43814 633.31366 419.095 633.31366C420.75186 633.31366 422.095 634.6568 422.095 636.31366Z" fill-rule="nonzero"/><path fill="#000000" fill-opacity="0.0" clip-path="url(#id_0)" d="M522.365 632.2846C522.365 633.94147 521.02185 635.2846 519.365 635.2846C517.7081 635.2846 516.365 633.94147 516.365 632.2846C516.365 630.62775 517.7081 629.2846 519.365 629.2846C521.02185 629.2846 522.365 630.62775 522.365 632.2846Z" fill-rule="nonzero"/><path fill="#000000" fill-opacity="0.0" clip-path="url(#id_0)" d="M622.635 625.0323C622.635 626.68915 621.2919 628.0323 619.635 628.0323C617.97815 628.0323 616.635 626.68915 616.635 625.0323C616.635 623.3754 617.97815 622.0323 619.635 622.0323C621.2919 622.0323 622.635 623.3754 622.635 625.0323Z" fill-rule="nonzero"/><path fill="#000000" fill-opacity="0.0" clip-path="url(#id_0)" d="M722.905 611.97815C722.905 613.635 721.5618 614.97815 719.905 614.97815C718.24817 614.97815 716.905 613.635 716.905 611.97815C716.905 610.3213 718.24817 608.97815 719.905 608.97815C721.5618 608.97815 722.905 610.3213 722.905 611.97815Z" fill-rule="nonzero"/><path fill="#000000" fill-opacity="0.0" clip-path="url(#id_0)" d="M823.175 588.48065C823.175 590.1375 821.83185 591.48065 820.175 591.48065C818.5181 591.48065 817.175 590.1375 817.175 588.48065C817.175 586.8238 818.5181 585.48065 820.175 585.48065C821.83185 585.48065 823.175 586.8238 823.175 588.48065Z" fill-rule="nonzero"/><path fill="#000000" fill-opacity="0.0" clip-path="url(#id_0)" d="M923.445 546.1851C923.445 547.842 922.10187 549.1851 920.445 549.1851C918.78815 549.1851 917.445 547.842 917.445 546.1851C917.445 544.5283 918.78815 543.1851 920.445 543.1851C922.10187 543.1851 923.445 544.5283 923.445 546.1851Z" fill-rule="nonzero"/><path fill="#000000" fill-opacity="0.0" clip-path="url(#id_0)" d="M1023.715 470.05325C1023.715 471.7101 1022.3718 473.05325 1020.715 473.05325C1019.05817 473.05325 1017.715 471.7101 1017.715 470.05325C1017.715 468.39642 1019.05817 467.05325 1020.715 467.05325C1022.3718 467.05325 1023.715 468.39642 1023.715 470.05325Z" fill-rule="nonzero"/><path fill="#757575" d="M61.2125 642.20935Q61.2125 644.1156 60.55625 645.0531Q59.915627 645.975 58.525 645.975Q57.165627 645.975 56.509377 645.0687Q55.853127 644.1625 55.821877 642.35L55.821877 640.9125Q55.821877 639.02185 56.4625 638.1156Q57.11875 637.1937 58.509377 637.1937Q59.884377 637.1937 60.540627 638.08435Q61.196877 638.95935 61.2125 640.8031L61.2125 642.20935ZM60.11875 640.725Q60.11875 639.35 59.728127 638.725Q59.353127 638.08435 58.509377 638.08435Q57.68125 638.08435 57.290627 638.725Q56.915627 639.35 56.915627 640.64685L56.915627 642.3812Q56.915627 643.7562 57.30625 644.4281Q57.7125 645.08435 58.525 645.08435Q59.321877 645.08435 59.7125 644.45935Q60.103127 643.83435 60.11875 642.5062L60.11875 640.725Z" fill-rule="nonzero"/><path fill="#757575" d="M47.446877 525.91L41.853127 525.91L41.853127 525.1287L44.80625 521.8475Q45.4625 521.0975 45.7125 520.64435Q45.9625 520.1756 45.9625 519.6756Q45.9625 519.0037 45.55625 518.58185Q45.165627 518.14435 44.478127 518.14435Q43.68125 518.14435 43.228127 518.6131Q42.775 519.0662 42.775 519.89435L41.696877 519.89435Q41.696877 518.70685 42.446877 517.9881Q43.2125 517.2537 44.478127 517.2537Q45.68125 517.2537 46.36875 517.8787Q47.05625 518.5037 47.05625 519.5506Q47.05625 520.8006 45.446877 522.5506L43.165627 525.01935L47.446877 525.01935L47.446877 525.91ZM49.353127 521.6287L49.790627 517.3787L54.165627 517.3787L54.165627 518.3787L50.7125 518.3787L50.446877 520.70685Q51.0875 520.33185 51.884377 520.33185Q53.040627 520.33185 53.728127 521.1131Q54.415627 521.8787 54.415627 523.1912Q54.415627 524.5037 53.696877 525.26935Q52.99375 526.035 51.7125 526.035Q50.5875 526.035 49.86875 525.41Q49.15 524.76935 49.05625 523.66L50.071877 523.66Q50.18125 524.39435 50.603127 524.76935Q51.025 525.14435 51.7125 525.14435Q52.4625 525.14435 52.9 524.6287Q53.3375 524.1131 53.3375 523.20685Q53.3375 522.3475 52.86875 521.83185Q52.4 521.3162 51.61875 521.3162Q50.915627 521.3162 50.509377 521.6131L50.228127 521.8475L49.353127 521.6287ZM61.2125 522.26935Q61.2125 524.1756 60.55625 525.1131Q59.915627 526.035 58.525 526.035Q57.165627 526.035 56.509377 525.1287Q55.853127 524.2225 55.821877 522.41L55.821877 520.9725Q55.821877 519.08185 56.4625 518.1756Q57.11875 517.2537 58.509377 517.2537Q59.884377 517.2537 60.540627 518.14435Q61.196877 519.01935 61.2125 520.8631L61.2125 522.26935ZM60.11875 520.785Q60.11875 519.41 59.728127 518.785Q59.353127 518.14435 58.509377 518.14435Q57.68125 518.14435 57.290627 518.785Q56.915627 519.41 56.915627 520.70685L56.915627 522.4412Q56.915627 523.8162 57.30625 524.4881Q57.7125 525.14435 58.525 525.14435Q59.321877 525.14435 59.7125 524.51935Q60.103127 523.89435 60.11875 522.5662L60.11875 520.785Z" fill-rule="nonzero"/><path fill="#757575" d="M42.353127 401.68875L42.790627 397.43875L47.165627 397.43875L47.165627 398.43875L43.7125 398.43875L43.446877 400.76688Q44.0875 400.39188 44.884377 400.39188Q46.040627 400.39188 46.728127 401.17313Q47.415627 401.93875 47.415627 403.25125Q47.415627 404.56375 46.696877 405.32938Q45.99375 406.095 44.7125 406.095Q43.5875 406.095 42.86875 405.47Q42.15 404.82938 42.05625 403.72L43.071877 403.72Q43.18125 404.45438 43.603127 404.82938Q44.025 405.20438 44.7125 405.20438Q45.4625 405.20438 45.9 404.68875Q46.3375 404.17313 46.3375 403.26688Q46.3375 402.4075 45.86875 401.89188Q45.4 401.37625 44.61875 401.37625Q43.915627 401.37625 43.509377 401.67313L43.228127 401.9075L42.353127 401.68875ZM54.2125 402.32938Q54.2125 404.23563 53.55625 405.17313Q52.915627 406.095 51.525 406.095Q50.165627 406.095 49.509377 405.18875Q48.853127 404.2825 48.821877 402.47L48.821877 401.0325Q48.821877 399.14188 49.4625 398.23563Q50.11875 397.31375 51.509377 397.31375Q52.884377 397.31375 53.540627 398.20438Q54.196877 399.07938 54.2125 400.92313L54.2125 402.32938ZM53.11875 400.845Q53.11875 399.47 52.728127 398.845Q52.353127 398.20438 51.509377 398.20438Q50.68125 398.20438 50.290627 398.845Q49.915627 399.47 49.915627 400.76688L49.915627 402.50125Q49.915627 403.87625 50.30625 404.54813Q50.7125 405.20438 51.525 405.20438Q52.321877 405.20438 52.7125 404.57938Q53.103127 403.95438 53.11875 402.62625L53.11875 400.845ZM61.2125 402.32938Q61.2125 404.23563 60.55625 405.17313Q59.915627 406.095 58.525 406.095Q57.165627 406.095 56.509377 405.18875Q55.853127 404.2825 55.821877 402.47L55.821877 401.0325Q55.821877 399.14188 56.4625 398.23563Q57.11875 397.31375 58.509377 397.31375Q59.884377 397.31375 60.540627 398.20438Q61.196877 399.07938 61.2125 400.92313L61.2125 402.32938ZM60.11875 400.845Q60.11875 399.47 59.728127 398.845Q59.353127 398.20438 58.509377 398.20438Q57.68125 398.20438 57.290627 398.845Q56.915627 399.47 56.915627 400.76688L56.915627 402.50125Q56.915627 403.87625 57.30625 404.54813Q57.7125 405.20438 58.525 405.20438Q59.321877 405.20438 59.7125 404.57938Q60.103127 403.95438 60.11875 402.62625L60.11875 400.845Z" fill-rule="nonzero"/><path fill="#757575" d="M47.36875 278.10812L43.8375 286.03L42.696877 286.03L46.2125 278.38937L41.603127 278.38937L41.603127 277.49875L47.36875 277.49875L47.36875 278.10812ZM49.353127 281.74875L49.790627 277.49875L54.165627 277.49875L54.165627 278.49875L50.7125 278.49875L50.446877 280.82687Q51.0875 280.45187 51.884377 280.45187Q53.040627 280.45187 53.728127 281.23312Q54.415627 281.99875 54.415627 283.31125Q54.415627 284.62375 53.696877 285.38937Q52.99375 286.155 51.7125 286.155Q50.5875 286.155 49.86875 285.53Q49.15 284.88937 49.05625 283.78L50.071877 283.78Q50.18125 284.51437 50.603127 284.88937Q51.025 285.26437 51.7125 285.26437Q52.4625 285.26437 52.9 284.74875Q53.3375 284.23312 53.3375 283.32687Q53.3375 282.4675 52.86875 281.95187Q52.4 281.43625 51.61875 281.43625Q50.915627 281.43625 50.509377 281.73312L50.228127 281.9675L49.353127 281.74875ZM61.2125 282.38937Q61.2125 284.29562 60.55625 285.23312Q59.915627 286.155 58.525 286.155Q57.165627 286.155 56.509377 285.24875Q55.853127 284.3425 55.821877 282.53L55.821877 281.0925Q55.821877 279.20187 56.4625 278.29562Q57.11875 277.37375 58.509377 277.37375Q59.884377 277.37375 60.540627 278.26437Q61.196877 279.13937 61.2125 280.98312L61.2125 282.38937ZM60.11875 280.905Q60.11875 279.53 59.728127 278.905Q59.353127 278.26437 58.509377 278.26437Q57.68125 278.26437 57.290627 278.905Q56.915627 279.53 56.915627 280.82687L56.915627 282.56125Q56.915627 283.93625 57.30625 284.60812Q57.7125 285.26437 58.525 285.26437Q59.321877 285.26437 59.7125 284.63937Q60.103127 284.01437 60.11875 282.68625L60.11875 280.905Z" fill-rule="nonzero"/><path fill="#757575" d="M38.415627 166.09L37.3375 166.09L37.3375 158.87125L35.15 159.66812L35.15 158.68375L38.259377 157.51187L38.415627 157.51187L38.415627 166.09ZM47.2125 162.44937Q47.2125 164.35562 46.55625 165.29312Q45.915627 166.215 44.525 166.215Q43.165627 166.215 42.509377 165.30875Q41.853127 164.4025 41.821877 162.59L41.821877 161.1525Q41.821877 159.26187 42.4625 158.35562Q43.11875 157.43375 44.509377 157.43375Q45.884377 157.43375 46.540627 158.32437Q47.196877 159.19937 47.2125 161.04312L47.2125 162.44937ZM46.11875 160.965Q46.11875 159.59 45.728127 158.965Q45.353127 158.32437 44.509377 158.32437Q43.68125 158.32437 43.290627 158.965Q42.915627 159.59 42.915627 160.88687L42.915627 162.62125Q42.915627 163.99625 43.30625 164.66812Q43.7125 165.32437 44.525 165.32437Q45.321877 165.32437 45.7125 164.69937Q46.103127 164.07437 46.11875 162.74625L46.11875 160.965ZM54.2125 162.44937Q54.2125 164.35562 53.55625 165.29312Q52.915627 166.215 51.525 166.215Q50.165627 166.215 49.509377 165.30875Q48.853127 164.4025 48.821877 162.59L48.821877 161.1525Q48.821877 159.26187 49.4625 158.35562Q50.11875 157.43375 51.509377 157.43375Q52.884377 157.43375 53.540627 158.32437Q54.196877 159.19937 54.2125 161.04312L54.2125 162.44937ZM53.11875 160.965Q53.11875 159.59 52.728127 158.965Q52.353127 158.32437 51.509377 158.32437Q50.68125 158.32437 50.290627 158.965Q49.915627 159.59 49.915627 160.88687L49.915627 162.62125Q49.915627 163.99625 50.30625 164.66812Q50.7125 165.32437 51.525 165.32437Q52.321877 165.32437 52.7125 164.69937Q53.103127 164.07437 53.11875 162.74625L53.11875 160.965ZM61.2125 162.44937Q61.2125 164.35562 60.55625 165.29312Q59.915627 166.215 58.525 166.215Q57.165627 166.215 56.509377 165.30875Q55.853127 164.4025 55.821877 162.59L55.821877 161.1525Q55.821877 159.26187 56.4625 158.35562Q57.11875 157.43375 58.509377 157.43375Q59.884377 157.43375 60.540627 158.32437Q61.196877 159.19937 61.2125 161.04312L61.2125 162.44937ZM60.11875 160.965Q60.11875 159.59 59.728127 158.965Q59.353127 158.32437 58.509377 158.32437Q57.68125 158.32437 57.290627 158.965Q56.915627 159.59 56.915627 160.88687L56.915627 162.62125Q56.915627 163.99625 57.30625 164.66812Q57.7125 165.32437 58.525 165.32437Q59.321877 165.32437 59.7125 164.69937Q60.103127 164.07437 60.11875 162.74625L60.11875 160.965Z" fill-rule="nonzero"/><path fill="#757575" d="M38.415627 46.15L37.3375 46.15L37.3375 38.93125L35.15 39.728127L35.15 38.74375L38.259377 37.571877L38.415627 37.571877L38.415627 46.15ZM47.446877 46.15L41.853127 46.15L41.853127 45.36875L44.80625 42.0875Q45.4625 41.3375 45.7125 40.884377Q45.9625 40.415627 45.9625 39.915627Q45.9625 39.24375 45.55625 38.821877Q45.165627 38.384377 44.478127 38.384377Q43.68125 38.384377 43.228127 38.853127Q42.775 39.30625 42.775 40.134377L41.696877 40.134377Q41.696877 38.946877 42.446877 38.228127Q43.2125 37.49375 44.478127 37.49375Q45.68125 37.49375 46.36875 38.11875Q47.05625 38.74375 47.05625 39.790627Q47.05625 41.040627 45.446877 42.790627L43.165627 45.259377L47.446877 45.259377L47.446877 46.15ZM49.353127 41.86875L49.790627 37.61875L54.165627 37.61875L54.165627 38.61875L50.7125 38.61875L50.446877 40.946877Q51.0875 40.571877 51.884377 40.571877Q53.040627 40.571877 53.728127 41.353127Q54.415627 42.11875 54.415627 43.43125Q54.415627 44.74375 53.696877 45.509377Q52.99375 46.275 51.7125 46.275Q50.5875 46.275 49.86875 45.65Q49.15 45.009377 49.05625 43.9L50.071877 43.9Q50.18125 44.634377 50.603127 45.009377Q51.025 45.384377 51.7125 45.384377Q52.4625 45.384377 52.9 44.86875Q53.3375 44.353127 53.3375 43.446877Q53.3375 42.5875 52.86875 42.071877Q52.4 41.55625 51.61875 41.55625Q50.915627 41.55625 50.509377 41.853127L50.228127 42.0875L49.353127 41.86875ZM61.2125 42.509377Q61.2125 44.415627 60.55625 45.353127Q59.915627 46.275 58.525 46.275Q57.165627 46.275 56.509377 45.36875Q55.853127 44.4625 55.821877 42.65L55.821877 41.2125Q55.821877 39.321877 56.4625 38.415627Q57.11875 37.49375 58.509377 37.49375Q59.884377 37.49375 60.540627 38.384377Q61.196877 39.259377 61.2125 41.103127L61.2125 42.509377ZM60.11875 41.025Q60.11875 39.65 59.728127 39.025Q59.353127 38.384377 58.509377 38.384377Q57.68125 38.384377 57.290627 39.025Q56.915627 39.65 56.915627 40.946877L56.915627 42.68125Q56.915627 44.05625 57.30625 44.728127Q57.7125 45.384377 58.525 45.384377Q59.321877 45.384377 59.7125 44.759377Q60.103127 44.134377 60.11875 42.80625L60.11875 41.025Z" fill-rule="nonzero"/></svg>