<?xml version="1.0" encoding="UTF-8" standalone="no"?>
<!-- Created with Inkscape (http://www.inkscape.org/) -->

<svg
   xmlns:dc="http://purl.org/dc/elements/1.1/"
   xmlns:cc="http://creativecommons.org/ns#"
   xmlns:rdf="http://www.w3.org/1999/02/22-rdf-syntax-ns#"
   xmlns:svg="http://www.w3.org/2000/svg"
   xmlns="http://www.w3.org/2000/svg"
   version="1.1"
   width="490"
   height="460"
   id="svg5672">
  <defs
     id="defs5674" />
  <metadata
     id="metadata5677">
    <rdf:RDF>
      <cc:Work
         rdf:about="">
        <dc:format>image/svg+xml</dc:format>
        <dc:type
           rdf:resource="http://purl.org/dc/dcmitype/StillImage" />
        <dc:title></dc:title>
      </cc:Work>
    </rdf:RDF>
  </metadata>
  <g
     transform="translate(0,-592.36218)"
     id="layer1">
    <path
       d="m 92.036507,927.90216 309.178863,0 0,53.14961 -309.178863,0 0,-53.14961 z"
       id="path20137"
       style="fill:#000000;stroke:none;visibility:visible" />
    <text
       x="245.77847"
       y="593.61609"
       id="text20149"
       style="font-size:22.5px;font-style:normal;font-variant:normal;font-weight:bold;font-stretch:normal;text-align:center;text-anchor:middle;fill:#ffffff;stroke:none;visibility:visible;font-family:Sans;-inkscape-font-specification:Sans Bold">
      <tspan
         x="244.60449"
         y="960.59637"
         id="tspan20151"
         style="font-style:normal;font-variant:normal;font-weight:bold;font-stretch:normal;text-align:center;text-anchor:middle;font-family:Sans;-inkscape-font-specification:Sans Bold">meta search engine</tspan>
    </text>
    <path
       d="m 258.32283,1031.9691 -6.73229,-20.1969 13.46457,0 -6.73228,20.1969 z"
       id="path20161"
       style="fill:#000000;stroke:none;visibility:visible" />
    <path
       d="m 259.20865,978.81949 0,36.99211 -1.77165,0 0,-36.99211 1.77165,0 z"
       id="path20163"
       style="fill:#000000;stroke:none;visibility:visible" />
    <text
       x="110.78586"
       y="594.86676"
       id="text20179"
       style="font-size:22.5px;font-style:normal;font-variant:normal;font-weight:normal;font-stretch:normal;text-align:end;text-anchor:end;fill:#000000;stroke:none;visibility:visible;font-family:Sans;-inkscape-font-specification:Sans">
      <tspan
         x="201.84537"
         y="1013.6502"
         id="tspan20181"
         style="font-style:normal;font-variant:normal;font-weight:normal;font-stretch:normal;text-align:end;text-anchor:end;font-family:Sans;-inkscape-font-specification:Sans">query</tspan>
    </text>
    <path
       d="m 231.67716,981.05177 6.73228,20.19683 -13.46456,0 6.73228,-20.19683 z"
       id="path20191"
       style="fill:#000000;stroke:none;visibility:visible" />
    <path
       d="m 230.79133,1034.2014 0,-36.99215 1.77166,0 0,36.99215 -1.77166,0 z"
       id="path20193"
       style="fill:#000000;stroke:none;visibility:visible" />
    <text
       x="11.382186"
       y="597.98486"
       id="text20209"
       style="font-size:22.5px;font-style:normal;font-variant:normal;font-weight:normal;font-stretch:normal;text-align:start;text-anchor:start;fill:#000000;stroke:none;visibility:visible;font-family:Sans;-inkscape-font-specification:Sans">
      <tspan
         x="284.22305"
         y="1013.6502"
         id="tspan20211"
         style="font-style:normal;font-variant:normal;font-weight:normal;font-stretch:normal;text-align:start;text-anchor:start;font-family:Sans;-inkscape-font-specification:Sans">response</tspan>
    </text>
    <path
       d="m 158.04326,927.90216 -20.19685,-6.73228 8.07874,-10.77165 12.11811,17.50393 z"
       id="path20221"
       style="fill:#000000;stroke:none;visibility:visible" />
    <path
       d="m 87.177119,874.75256 20.196851,6.73228 -8.078741,10.77166 -12.11811,-17.50394 z"
       id="path20223"
       style="fill:#000000;stroke:none;visibility:visible" />
    <path
       d="m 144.57869,918.90217 -45.000001,-33.73229 1.062991,-1.41732 45,33.73228 -1.06299,1.41733 z"
       id="path20225"
       style="fill:#000000;stroke:none;visibility:visible" />
    <path
       d="m 246.62593,927.90216 -6.73228,-20.19685 13.46457,0 -6.73229,20.19685 z"
       id="path20237"
       style="fill:#000000;stroke:none;visibility:visible" />
    <path
       d="m 246.62593,874.75256 6.73229,20.19685 -13.46457,0 6.73228,-20.19685 z"
       id="path20239"
       style="fill:#000000;stroke:none;visibility:visible" />
    <path
       d="m 245.74011,911.74468 0,-20.83464 1.77165,0 0,20.83464 -1.77165,0 z"
       id="path20241"
       style="fill:#000000;stroke:none;visibility:visible" />
    <path
       d="m 335.20861,927.90216 12.11811,-17.50393 8.07875,10.77165 -20.19686,6.73228 z"
       id="path20253"
       style="fill:#000000;stroke:none;visibility:visible" />
    <path
       d="m 406.07476,874.75256 -12.11811,17.50394 -8.07874,-10.77166 20.19685,-6.73228 z"
       id="path20255"
       style="fill:#000000;stroke:none;visibility:visible" />
    <path
       d="m 347.61018,917.48484 45.00001,-33.73228 1.063,1.41732 -45.00002,33.73229 -1.06299,-1.41733 z"
       id="path20257"
       style="fill:#000000;stroke:none;visibility:visible" />
    <path
       d="m 16.310979,839.31949 141.732281,0 0,35.43307 -141.732281,0 0,-35.43307 z"
       id="path20269"
       style="fill:#000000;stroke:none;visibility:visible" />
    <text
       x="125.63203"
       y="594.86676"
       id="text20281"
       style="font-size:16.26377869px;font-style:normal;font-variant:normal;font-weight:bold;font-stretch:normal;text-align:center;text-anchor:middle;fill:#ffffff;stroke:none;visibility:visible;font-family:Sans;-inkscape-font-specification:Sans Bold">
      <tspan
         x="87.145355"
         y="862.74072"
         id="tspan20283"
         style="font-style:normal;font-variant:normal;font-weight:bold;font-stretch:normal;text-align:center;text-anchor:middle;font-family:Sans;-inkscape-font-specification:Sans Bold">search engine</tspan>
    </text>
    <path
       d="m 51.744049,750.73681 -1.62992,-21.2244 13.0748,3.25984 -11.44488,17.96456 z"
       id="path20293"
       style="fill:#000000;stroke:none;visibility:visible" />
    <path
       d="m 70.310979,680.08328 -13.78347,55.20472 -1.73622,-0.4252 13.8189,-55.20472 1.70079,0.4252 z"
       id="path20295"
       style="fill:#000000;stroke:none;visibility:visible" />
    <path
       d="m 38.314909,750.73681 -1.24015,0.0709 -1.20473,0.2126 -1.20472,0.35433 -1.16929,0.49606 -1.13386,0.60237 -1.09843,0.67322 -1.02756,0.81496 -0.95669,0.88583 -0.88583,0.95669 -0.81496,1.02756 -0.67322,1.09843 -0.60237,1.13386 -0.49606,1.16929 -0.35433,1.20472 -0.2126,1.20473 -0.0709,1.24015 0,9.14174 0.0709,1.24015 0.2126,1.20473 0.35433,1.20472 0.49606,1.20473 0.60237,1.13385 0.67322,1.063 0.81496,1.06299 0.88583,0.95669 0.95669,0.88583 1.02756,0.77953 1.09843,0.70866 1.13386,0.60236 1.16929,0.49606 1.20472,0.35433 1.20473,0.2126 1.24015,0.0709 26.85827,0 1.24016,-0.0709 1.20472,-0.2126 1.20473,-0.35433 1.20472,-0.49606 1.13386,-0.60236 1.06299,-0.70866 1.06299,-0.77953 0.9567,-0.88583 0.88582,-0.95669 0.77953,-1.06299 0.70866,-1.063 0.60237,-1.13385 0.49606,-1.20473 0.35433,-1.20472 0.2126,-1.20473 0.0709,-1.24015 0,-9.14174 -0.0709,-1.24015 -0.2126,-1.20473 -0.35433,-1.20472 -0.49606,-1.16929 -0.60237,-1.13386 -0.70866,-1.09843 -0.77953,-1.02756 -0.88582,-0.95669 -0.9567,-0.88583 -1.06299,-0.81496 -1.06299,-0.67322 -1.13386,-0.60237 -1.20472,-0.49606 -1.20473,-0.35433 -1.20472,-0.2126 -1.24016,-0.0709 -26.85827,0 z"
       id="path20307"
       style="fill:#4c4c4c;stroke:none;visibility:visible" />
    <path
       d="m 51.744049,839.31949 -6.73229,-20.19685 13.46457,0 -6.73228,20.19685 z"
       id="path20319"
       style="fill:#000000;stroke:none;visibility:visible" />
    <path
       d="m 51.744049,786.16988 6.73228,20.19685 -13.46457,0 6.73229,-20.19685 z"
       id="path20321"
       style="fill:#000000;stroke:none;visibility:visible" />
    <path
       d="m 50.858219,823.16201 0,-20.83465 1.77165,0 0,20.83465 -1.77165,0 z"
       id="path20323"
       style="fill:#000000;stroke:none;visibility:visible" />
    <path
       d="m 122.61019,839.31949 -6.73229,-20.19685 13.46457,0 -6.73228,20.19685 z"
       id="path20335"
       style="fill:#000000;stroke:none;visibility:visible" />
    <path
       d="m 122.61019,786.16988 6.73228,20.19685 -13.46457,0 6.73229,-20.19685 z"
       id="path20337"
       style="fill:#000000;stroke:none;visibility:visible" />
    <path
       d="m 121.72436,823.16201 0,-20.83465 1.77165,0 0,20.83465 -1.77165,0 z"
       id="path20339"
       style="fill:#000000;stroke:none;visibility:visible" />
    <path
       d="m 109.18105,750.73681 -1.24015,0.0709 -1.20473,0.2126 -1.20472,0.35433 -1.16929,0.49606 -1.13386,0.60237 -1.09843,0.67322 -1.02756,0.81496 -0.95669,0.88583 -0.885831,0.95669 -0.81496,1.02756 -0.67322,1.09843 -0.60237,1.13386 -0.49606,1.16929 -0.35433,1.20472 -0.2126,1.20473 -0.0709,1.24015 0,9.14174 0.0709,1.24015 0.2126,1.20473 0.35433,1.20472 0.49606,1.20473 0.60237,1.13385 0.67322,1.063 0.81496,1.06299 0.885831,0.95669 0.95669,0.88583 1.02756,0.77953 1.09843,0.70866 1.13386,0.60236 1.16929,0.49606 1.20472,0.35433 1.20473,0.2126 1.24015,0.0709 26.85827,0 1.24016,-0.0709 1.20472,-0.2126 1.20473,-0.35433 1.20472,-0.49606 1.13386,-0.60236 1.06299,-0.70866 1.06299,-0.77953 0.9567,-0.88583 0.88582,-0.95669 0.77953,-1.06299 0.70866,-1.063 0.60236,-1.13385 0.49607,-1.20473 0.35433,-1.20472 0.2126,-1.20473 0.0709,-1.24015 0,-9.14174 -0.0709,-1.24015 -0.2126,-1.20473 -0.35433,-1.20472 -0.49607,-1.16929 -0.60236,-1.13386 -0.70866,-1.09843 -0.77953,-1.02756 -0.88582,-0.95669 -0.9567,-0.88583 -1.06299,-0.81496 -1.06299,-0.67322 -1.13386,-0.60237 -1.20472,-0.49606 -1.20473,-0.35433 -1.20472,-0.2126 -1.24016,-0.0709 -26.85827,0 z"
       id="path20351"
       style="fill:#4c4c4c;stroke:none;visibility:visible" />
    <path
       d="m 122.61019,750.73681 -6.73229,-20.19685 13.46457,0 -6.73228,20.19685 z"
       id="path20363"
       style="fill:#000000;stroke:none;visibility:visible" />
    <path
       d="m 123.49601,679.87068 0,54.70865 -1.77165,0 0,-54.70865 1.77165,0 z"
       id="path20365"
       style="fill:#000000;stroke:none;visibility:visible" />
    <path
       d="m 175.75979,839.31949 141.73228,0 0,35.43307 -141.73228,0 0,-35.43307 z"
       id="path20377"
       style="fill:#000000;stroke:none;visibility:visible" />
    <text
       x="125.63203"
       y="594.86676"
       id="text20389"
       style="font-size:16.26377869px;font-style:normal;font-variant:normal;font-weight:bold;font-stretch:normal;text-align:center;text-anchor:middle;fill:#ffffff;stroke:none;visibility:visible;font-family:Sans;-inkscape-font-specification:Sans Bold">
      <tspan
         x="246.59418"
         y="862.74072"
         id="tspan20391"
         style="font-style:normal;font-variant:normal;font-weight:bold;font-stretch:normal;text-align:center;text-anchor:middle;font-family:Sans;-inkscape-font-specification:Sans Bold">search engine</tspan>
    </text>
    <path
       d="m 211.19286,750.73681 -6.73228,-20.19685 13.46457,0 -6.73229,20.19685 z"
       id="path20401"
       style="fill:#000000;stroke:none;visibility:visible" />
    <path
       d="m 212.07869,679.87068 0,54.70865 -1.77165,0 0,-54.70865 1.77165,0 z"
       id="path20403"
       style="fill:#000000;stroke:none;visibility:visible" />
    <path
       d="m 197.76373,750.73681 -1.24016,0.0709 -1.20472,0.2126 -1.20473,0.35433 -1.16929,0.49606 -1.13386,0.60237 -1.09842,0.67322 -1.02756,0.81496 -0.95669,0.88583 -0.88583,0.95669 -0.81496,1.02756 -0.67323,1.09843 -0.60236,1.13386 -0.49606,1.16929 -0.35434,1.20472 -0.21259,1.20473 -0.0709,1.24015 0,9.14174 0.0709,1.24015 0.21259,1.20473 0.35434,1.20472 0.49606,1.20473 0.60236,1.13385 0.67323,1.063 0.81496,1.06299 0.88583,0.95669 0.95669,0.88583 1.02756,0.77953 1.09842,0.70866 1.13386,0.60236 1.16929,0.49606 1.20473,0.35433 1.20472,0.2126 1.24016,0.0709 26.85827,0 1.24015,-0.0709 1.20473,-0.2126 1.20472,-0.35433 1.20473,-0.49606 1.13385,-0.60236 1.063,-0.70866 1.06299,-0.77953 0.95669,-0.88583 0.88583,-0.95669 0.77953,-1.06299 0.70866,-1.063 0.60236,-1.13385 0.49606,-1.20473 0.35433,-1.20472 0.2126,-1.20473 0.0709,-1.24015 0,-9.14174 -0.0709,-1.24015 -0.2126,-1.20473 -0.35433,-1.20472 -0.49606,-1.16929 -0.60236,-1.13386 -0.70866,-1.09843 -0.77953,-1.02756 -0.88583,-0.95669 -0.95669,-0.88583 -1.06299,-0.81496 -1.063,-0.67322 -1.13385,-0.60237 -1.20473,-0.49606 -1.20472,-0.35433 -1.20473,-0.2126 -1.24015,-0.0709 -26.85827,0 z"
       id="path20415"
       style="fill:#4c4c4c;stroke:none;visibility:visible" />
    <path
       d="m 211.19286,839.31949 -6.73228,-20.19685 13.46457,0 -6.73229,20.19685 z"
       id="path20427"
       style="fill:#000000;stroke:none;visibility:visible" />
    <path
       d="m 211.19286,786.16988 6.73229,20.19685 -13.46457,0 6.73228,-20.19685 z"
       id="path20429"
       style="fill:#000000;stroke:none;visibility:visible" />
    <path
       d="m 210.30704,823.16201 0,-20.83465 1.77165,0 0,20.83465 -1.77165,0 z"
       id="path20431"
       style="fill:#000000;stroke:none;visibility:visible" />
    <path
       d="m 282.059,839.31949 -6.73228,-20.19685 13.46457,0 -6.73229,20.19685 z"
       id="path20443"
       style="fill:#000000;stroke:none;visibility:visible" />
    <path
       d="m 282.059,786.16988 6.73229,20.19685 -13.46457,0 6.73228,-20.19685 z"
       id="path20445"
       style="fill:#000000;stroke:none;visibility:visible" />
    <path
       d="m 281.17318,823.16201 0,-20.83465 1.77165,0 0,20.83465 -1.77165,0 z"
       id="path20447"
       style="fill:#000000;stroke:none;visibility:visible" />
    <path
       d="m 268.62987,750.73681 -1.24016,0.0709 -1.20472,0.2126 -1.20473,0.35433 -1.16929,0.49606 -1.13386,0.60237 -1.09842,0.67322 -1.02756,0.81496 -0.95669,0.88583 -0.88583,0.95669 -0.81496,1.02756 -0.67323,1.09843 -0.60236,1.13386 -0.49606,1.16929 -0.35434,1.20472 -0.21259,1.20473 -0.0709,1.24015 0,9.14174 0.0709,1.24015 0.21259,1.20473 0.35434,1.20472 0.49606,1.20473 0.60236,1.13385 0.67323,1.063 0.81496,1.06299 0.88583,0.95669 0.95669,0.88583 1.02756,0.77953 1.09842,0.70866 1.13386,0.60236 1.16929,0.49606 1.20473,0.35433 1.20472,0.2126 1.24016,0.0709 26.85827,0 1.24015,-0.0709 1.20473,-0.2126 1.20472,-0.35433 1.20473,-0.49606 1.13385,-0.60236 1.063,-0.70866 1.06299,-0.77953 0.95669,-0.88583 0.88583,-0.95669 0.77953,-1.06299 0.70866,-1.063 0.60236,-1.13385 0.49606,-1.20473 0.35433,-1.20472 0.2126,-1.20473 0.0709,-1.24015 0,-9.14174 -0.0709,-1.24015 -0.2126,-1.20473 -0.35433,-1.20472 -0.49606,-1.16929 -0.60236,-1.13386 -0.70866,-1.09843 -0.77953,-1.02756 -0.88583,-0.95669 -0.95669,-0.88583 -1.06299,-0.81496 -1.063,-0.67322 -1.13385,-0.60237 -1.20473,-0.49606 -1.20472,-0.35433 -1.20473,-0.2126 -1.24015,-0.0709 -26.85827,0 z"
       id="path20459"
       style="fill:#4c4c4c;stroke:none;visibility:visible" />
    <path
       d="m 282.059,750.73681 -6.73228,-20.19685 13.46457,0 -6.73229,20.19685 z"
       id="path20471"
       style="fill:#000000;stroke:none;visibility:visible" />
    <path
       d="m 282.94483,679.87068 0,54.70865 -1.77165,0 0,-54.70865 1.77165,0 z"
       id="path20473"
       style="fill:#000000;stroke:none;visibility:visible" />
    <path
       d="m 335.20861,839.31949 141.73229,0 0,35.43307 -141.73229,0 0,-35.43307 z"
       id="path20485"
       style="fill:#000000;stroke:none;visibility:visible" />
    <text
       x="125.63203"
       y="594.86676"
       id="text20497"
       style="font-size:16.26377869px;font-style:normal;font-variant:normal;font-weight:bold;font-stretch:normal;text-align:center;text-anchor:middle;fill:#ffffff;stroke:none;visibility:visible;font-family:Sans;-inkscape-font-specification:Sans Bold">
      <tspan
         x="406.04297"
         y="862.74072"
         id="tspan20499"
         style="font-style:normal;font-variant:normal;font-weight:bold;font-stretch:normal;text-align:center;text-anchor:middle;font-family:Sans;-inkscape-font-specification:Sans Bold">search engine</tspan>
    </text>
    <path
       d="m 370.64169,750.73681 -6.73228,-20.19685 13.46456,0 -6.73228,20.19685 z"
       id="path20509"
       style="fill:#000000;stroke:none;visibility:visible" />
    <path
       d="m 371.52752,662.15414 0,72.42519 -1.77166,0 0,-72.42519 1.77166,0 z"
       id="path20511"
       style="fill:#000000;stroke:none;visibility:visible" />
    <path
       d="m 357.21256,750.73681 -1.24016,0.0709 -1.20472,0.2126 -1.20473,0.35433 -1.16929,0.49606 -1.13387,0.60237 -1.09843,0.67322 -1.02756,0.81496 -0.95669,0.88583 -0.88583,0.95669 -0.81496,1.02756 -0.67322,1.09843 -0.60237,1.13386 -0.49606,1.16929 -0.35433,1.20472 -0.2126,1.20473 -0.0709,1.24015 0,9.14174 0.0709,1.24015 0.2126,1.20473 0.35433,1.20472 0.49606,1.20473 0.60237,1.13385 0.67322,1.063 0.81496,1.06299 0.88583,0.95669 0.95669,0.88583 1.02756,0.77953 1.09843,0.70866 1.13387,0.60236 1.16929,0.49606 1.20473,0.35433 1.20472,0.2126 1.24016,0.0709 26.85827,0 1.24015,-0.0709 1.20473,-0.2126 1.20472,-0.35433 1.20473,-0.49606 1.13385,-0.60236 1.063,-0.70866 1.06299,-0.77953 0.95669,-0.88583 0.88583,-0.95669 0.77953,-1.06299 0.70866,-1.063 0.60236,-1.13385 0.49606,-1.20473 0.35433,-1.20472 0.2126,-1.20473 0.0709,-1.24015 0,-9.14174 -0.0709,-1.24015 -0.2126,-1.20473 -0.35433,-1.20472 -0.49606,-1.16929 -0.60236,-1.13386 -0.70866,-1.09843 -0.77953,-1.02756 -0.88583,-0.95669 -0.95669,-0.88583 -1.06299,-0.81496 -1.063,-0.67322 -1.13385,-0.60237 -1.20473,-0.49606 -1.20472,-0.35433 -1.20473,-0.2126 -1.24015,-0.0709 -26.85827,0 z"
       id="path20523"
       style="fill:#4c4c4c;stroke:none;visibility:visible" />
    <path
       d="m 370.64169,839.31949 -6.73228,-20.19685 13.46456,0 -6.73228,20.19685 z"
       id="path20535"
       style="fill:#000000;stroke:none;visibility:visible" />
    <path
       d="m 370.64169,786.16988 6.73228,20.19685 -13.46456,0 6.73228,-20.19685 z"
       id="path20537"
       style="fill:#000000;stroke:none;visibility:visible" />
    <path
       d="m 369.75586,823.16201 0,-20.83465 1.77166,0 0,20.83465 -1.77166,0 z"
       id="path20539"
       style="fill:#000000;stroke:none;visibility:visible" />
    <path
       d="m 441.50783,839.31949 -6.73228,-20.19685 13.46456,0 -6.73228,20.19685 z"
       id="path20551"
       style="fill:#000000;stroke:none;visibility:visible" />
    <path
       d="m 441.50783,786.16988 6.73228,20.19685 -13.46456,0 6.73228,-20.19685 z"
       id="path20553"
       style="fill:#000000;stroke:none;visibility:visible" />
    <path
       d="m 440.622,823.16201 0,-20.83465 1.77166,0 0,20.83465 -1.77166,0 z"
       id="path20555"
       style="fill:#000000;stroke:none;visibility:visible" />
    <path
       d="m 428.0787,750.73681 -1.24016,0.0709 -1.20472,0.2126 -1.20473,0.35433 -1.16929,0.49606 -1.13386,0.60237 -1.09842,0.67322 -1.02756,0.81496 -0.95669,0.88583 -0.88583,0.95669 -0.81496,1.02756 -0.67323,1.09843 -0.60236,1.13386 -0.49607,1.16929 -0.35433,1.20472 -0.21259,1.20473 -0.0709,1.24015 0,9.14174 0.0709,1.24015 0.21259,1.20473 0.35433,1.20472 0.49607,1.20473 0.60236,1.13385 0.67323,1.063 0.81496,1.06299 0.88583,0.95669 0.95669,0.88583 1.02756,0.77953 1.09842,0.70866 1.13386,0.60236 1.16929,0.49606 1.20473,0.35433 1.20472,0.2126 1.24016,0.0709 26.85827,0 1.24015,-0.0709 1.20473,-0.2126 1.20472,-0.35433 1.20473,-0.49606 1.13385,-0.60236 1.063,-0.70866 1.06299,-0.77953 0.95669,-0.88583 0.88583,-0.95669 0.77953,-1.06299 0.70866,-1.063 0.60236,-1.13385 0.49606,-1.20473 0.35433,-1.20472 0.2126,-1.20473 0.0709,-1.24015 0,-9.14174 -0.0709,-1.24015 -0.2126,-1.20473 -0.35433,-1.20472 -0.49606,-1.16929 -0.60236,-1.13386 -0.70866,-1.09843 -0.77953,-1.02756 -0.88583,-0.95669 -0.95669,-0.88583 -1.06299,-0.81496 -1.063,-0.67322 -1.13385,-0.60237 -1.20473,-0.49606 -1.20472,-0.35433 -1.20473,-0.2126 -1.24015,-0.0709 -26.85827,0 z"
       id="path20567"
       style="fill:#4c4c4c;stroke:none;visibility:visible" />
    <path
       d="m 441.50783,750.73681 -13.74803,-16.26377 12.50787,-4.99607 1.24016,21.25984 z"
       id="path20579"
       style="fill:#000000;stroke:none;visibility:visible" />
    <path
       d="m 406.88972,661.83524 29.44488,73.55906 -1.66535,0.67322 -29.40945,-73.59448 1.62992,-0.6378 z"
       id="path20581"
       style="fill:#000000;stroke:none;visibility:visible" />
    <path
       d="m 172.04621,612.27299 c -22.22557,0.80016 -45.01224,1.31139 -66.25064,8.47079 -4.50317,2.22688 -10.780881,2.60143 -12.089691,8.46702 -0.33347,4.84206 -4.61561,3.06548 -8.34717,3.31219 -19.91325,0.9435 -40.5371,0.48835 -59.45957,7.438 -4.49452,2.18402 -9.45977,3.96242 -10.7712,9.40185 -1.50177,3.10219 1.74317,7.48068 4.32262,9.07221 11.59306,5.44193 24.42035,7.24141 36.97065,9.15044 -3.31013,1.59032 -8.02076,4.32612 -5.25,8.59375 7.69665,8.70916 19.40933,12.06073 30.50804,13.91285 20.687421,3.99797 41.911671,5.34348 62.949691,4.76371 16.1038,-1.14973 32.39049,0.16259 48.29227,-3.33281 11.57674,5.80508 25.10126,5.6809 37.7533,6.18095 10.63762,-1.19627 21.92606,-0.2931 31.40295,-6.21215 15.12557,1.82386 30.36805,2.10097 45.54966,2.60968 24.06773,-1.0446 48.72597,-1.55191 71.76275,-9.26593 4.97328,-3.15695 10.13938,-5.31918 16.10256,-4.54902 17.71763,-0.007 35.20672,-3.17387 52.5224,-6.51348 4.7886,-2.69738 10.95073,-4.038 12.41167,-10.17013 1.50208,-3.01431 -1.89092,-6.52929 -3.53653,-8.82992 -13.38432,-5.99995 -27.86911,-8.76382 -42.37498,-10.375 4.91223,-0.66341 9.84458,-5.74099 6.49548,-10.62842 -0.72843,-5.61152 -5.49485,-7.03562 -10.26981,-8.0112 -17.35955,-5.68302 -35.72996,-7.86795 -53.92729,-7.82138 -15.34913,0.87667 -30.98474,1.53128 -45.64745,6.336 -5.10631,0.94959 -9.42352,-1.295 -13.99545,-2.93476 -15.77914,-1.32099 -31.8119,-4.67464 -47.49921,-0.81524 -6.49805,0.87407 -11.92104,-2.14219 -18.42214,-2.76183 -19.46269,-4.64392 -39.33846,-4.55485 -59.20291,-5.48817 z"
       id="path20593"
       style="fill:#ffffff;stroke:#000000;stroke-width:3.5;stroke-miterlimit:4;stroke-opacity:1;stroke-dasharray:none;visibility:visible" />
    <text
       x="120.53659"
       y="592.77942"
       id="text20949"
       style="font-size:22.5px;font-style:normal;font-variant:normal;font-weight:bold;font-stretch:normal;text-align:center;text-anchor:middle;fill:#000000;stroke:none;visibility:visible;font-family:Sans;-inkscape-font-specification:Sans Bold">
      <tspan
         x="237.36731"
         y="661.12982"
         id="tspan20951"
         style="font-style:normal;font-variant:normal;font-weight:bold;font-stretch:normal;text-align:center;text-anchor:middle;font-family:Sans;-inkscape-font-specification:Sans Bold">resources</tspan>
    </text>
  </g>
</svg>
