<svg enable-background="new 0 0 652 652" viewBox="0 0 652 652" xmlns="http://www.w3.org/2000/svg"><path d="m279.8 309.8h11.1v7.5h-11.1v18.5c0 1.9.3 7.2 6.6 7.2 1.7 0 3-.3 4.4-.8v7.7c-1.9.6-3.9.8-6.4.8-13.3 0-13.3-11.6-13.3-14.4v-18.8h-6.6v-7.5h6.6v-10.5l8.6-5c.1.1.1 15.3.1 15.3zm88.4-.2h6.6v40.1h-6.6l-1.1-4.4c-2.5 2.8-5.3 5-12.2 5-7.2 0-14.1-3.6-14.1-15.5v-10.5c0-11.6 7.2-15.5 14.1-15.5 7.2 0 9.7 2.2 12.2 5zm-1.9 15.2c0-2.2-1.9-8.3-9.4-8.3s-7.7 6.4-7.7 7.7v11.1c0 1.1 0 7.7 7.7 7.7s9.4-6.1 9.4-8.3zm-42 9.6c0 2.2-1.9 8.3-9.4 8.3-7.7 0-7.7-6.4-7.7-7.7 0-1.4 0-24.3 0-25.4h-8.6v25.1c0 11.6 7.2 15.5 14.1 15.5 7.2 0 9.7-2.2 12.2-5l1.1 4.4h6.6v-39.8h-8.6c.3 2.8.3 24.6.3 24.6zm-75.2 0c0 2.2-1.9 8.3-9.4 8.3-7.7 0-7.7-6.4-7.7-7.7 0-1.4 0-24.3 0-25.4h-8.6v25.1c0 11.6 7.2 15.5 14.1 15.5 7.2 0 9.7-2.2 12.2-5l1.1 4.4h6.6v-39.8h-8.6c.3 2.8.3 24.6.3 24.6zm-228.5-12.4 27.6 27.6v-55.3l-27.6-27.6zm82.9 27.6h-55.3l27.6 27.6h55.3v-55.2l-27.6-27.6zm97.2-40.6c-6.4 0-10.2 4.1-11.9 6.1-1.7-3.3-5-6.1-11.6-6.1-5.3 0-8.8 2.8-10.8 5l-1.1-4.4h-6.6v13.8 26.3h8.6v-24.7c0-2.2 1.9-8.3 8-8.3 6.4 0 6.6 5.3 6.6 7.2v25.7h8.6v-24.6c0-2.2 1.9-8.3 8-8.3 6.4 0 6.6 5.3 6.6 7.2v25.7h8.8v-26c.1-2.7.1-14.6-13.2-14.6zm-152.5-14.6 27.6 27.6 27.6-27.6-27.6-27.6zm520.1 55.2h8.6v-55.3h-8.6zm-17.7-46.7h8.6v-8.6h-8.6zm44.2 29v3.6c0 1.1.6 7.5 8.6 7.5 6.4 0 8-3.9 8.6-6.1h8.6c-.8 10.2-9.4 13.5-17.1 13.5-8.3 0-17.1-3.6-17.1-15.5v-10.5c0-11.6 8.8-15.5 17.1-15.5s17.1 3.6 17.1 15.5v7.5h-8.6zm0-6.9h17.2v-1.1c0-1.1-.6-7.5-8.6-7.5s-8.6 6.1-8.6 7.5zm-44.2 24.6h8.6v-39.8h-8.6zm-106.7-40.6c-6.4 0-10.2 4.1-11.9 6.1-1.7-3.3-5-6.1-11.6-6.1-5.3 0-8.8 2.8-10.8 5l-1.1-4.4h-6.6v13.8 26.3h8.6v-24.7c0-2.2 1.9-8.3 8-8.3 6.4 0 6.6 5.3 6.6 7.2v25.7h8.6v-24.6c0-2.2 1.9-8.3 8-8.3 6.4 0 6.6 5.3 6.6 7.2v25.7h8.6v-26c.3-2.7.3-14.6-13-14.6zm97.3 15.5v10.5c0 11.6-7.2 15.5-14.1 15.5-7.2 0-9.7-2.2-12.2-5l-1.1 4.4h-6.8v-55.3h8.6v19.1c2.2-2.5 5.3-4.1 11.6-4.1 7.1-.6 14 3.3 14 14.9zm-8.5-.3c0-1.1 0-7.7-7.7-7.7s-9.4 6.1-9.4 8.3v9.7c0 2.2 1.9 8.3 9.4 8.3s7.7-6.4 7.7-7.7c0-.4 0-10.3 0-10.9zm-148.4 25.4h8.6v-55.3h-8.6zm114.9-25.1v10.5c0 11.6-8.8 15.5-17.1 15.5s-17.1-3.6-17.1-15.5v-10.5c0-11.6 8.8-15.5 17.1-15.5s17.1 3.9 17.1 15.5zm-8.5-.3c0-1.1-.6-7.7-8.6-7.7s-8.6 6.4-8.6 7.7v11.1c0 1.1.6 7.7 8.6 7.7s8.6-6.4 8.6-7.7z" fill="#01a5d4"/></svg>