<?xml version="1.0" encoding="utf-8"?>
<!-- Generator: Adobe Illustrator 19.2.1, SVG Export Plug-In . SVG Version: 6.00 Build 0)  -->
<svg version="1.1" id="layer" xmlns="http://www.w3.org/2000/svg" xmlns:xlink="http://www.w3.org/1999/xlink" x="0px" y="0px"
	 viewBox="0 0 652 652" style="enable-background:new 0 0 652 652;" xml:space="preserve">
<style type="text/css">
	.st0{fill:#01A5D4;}
</style>
<path class="st0" d="M279.8,309.8h11.1v7.5h-11.1v18.5c0,1.9,0.3,7.2,6.6,7.2c1.7,0,3-0.3,4.4-0.8v7.7c-1.9,0.6-3.9,0.8-6.4,0.8l0,0
	c-13.3,0-13.3-11.6-13.3-14.4v-18.8h-6.6v-7.5h6.6v-10.5l8.6-5C279.8,294.6,279.8,309.8,279.8,309.8z M368.2,309.6h6.6v40.1h-6.6
	l-1.1-4.4c-2.5,2.8-5.3,5-12.2,5l0,0c-7.2,0-14.1-3.6-14.1-15.5v-10.5c0-11.6,7.2-15.5,14.1-15.5l0,0c7.2,0,9.7,2.2,12.2,5
	L368.2,309.6z M366.3,324.8c0-2.2-1.9-8.3-9.4-8.3s-7.7,6.4-7.7,7.7c0,0.6,0,10.5,0,11.1c0,1.1,0,7.7,7.7,7.7s9.4-6.1,9.4-8.3V324.8
	z M324.3,334.4c0,2.2-1.9,8.3-9.4,8.3c-7.7,0-7.7-6.4-7.7-7.7c0-1.4,0-24.3,0-25.4h-8.6c0,2.2,0,13.8,0,25.1
	c0,11.6,7.2,15.5,14.1,15.5c7.2,0,9.7-2.2,12.2-5l1.1,4.4h6.6v-39.8H324C324.3,312.6,324.3,334.4,324.3,334.4z M249.1,334.4
	c0,2.2-1.9,8.3-9.4,8.3c-7.7,0-7.7-6.4-7.7-7.7c0-1.4,0-24.3,0-25.4h-8.6c0,2.2,0,13.8,0,25.1c0,11.6,7.2,15.5,14.1,15.5
	c7.2,0,9.7-2.2,12.2-5l1.1,4.4h6.6v-39.8h-8.6C249.1,312.6,249.1,334.4,249.1,334.4z M20.6,322l27.6,27.6v-55.3l-27.6-27.6V322z
	 M103.5,349.6H48.2l27.6,27.6h55.3V322l-27.6-27.6V349.6z M200.7,309L200.7,309c-6.4,0-10.2,4.1-11.9,6.1c-1.7-3.3-5-6.1-11.6-6.1
	l0,0c-5.3,0-8.8,2.8-10.8,5l-1.1-4.4h-6.6v13.8v26.3h8.6l0,0V325c0-2.2,1.9-8.3,8-8.3c6.4,0,6.6,5.3,6.6,7.2v25.7l0,0l0,0h8.6V325
	c0-2.2,1.9-8.3,8-8.3c6.4,0,6.6,5.3,6.6,7.2v25.7h8.8v-26C214,320.9,214,309,200.7,309z M48.2,294.4L75.8,322l27.6-27.6l-27.6-27.6
	L48.2,294.4z M568.3,349.6h8.6v-55.3h-8.6V349.6z M550.6,302.9h8.6v-8.6h-8.6V302.9z M594.8,331.9v3.6c0,1.1,0.6,7.5,8.6,7.5
	c6.4,0,8-3.9,8.6-6.1h8.6c-0.8,10.2-9.4,13.5-17.1,13.5c-8.3,0-17.1-3.6-17.1-15.5v-10.5c0-11.6,8.8-15.5,17.1-15.5l0,0l0,0
	c8.3,0,17.1,3.6,17.1,15.5v7.5H612H594.8z M594.8,325H612v-1.1c0-1.1-0.6-7.5-8.6-7.5l0,0l0,0c-8,0-8.6,6.1-8.6,7.5L594.8,325
	L594.8,325z M550.6,349.6h8.6v-39.8h-8.6V349.6z M443.9,309L443.9,309c-6.4,0-10.2,4.1-11.9,6.1c-1.7-3.3-5-6.1-11.6-6.1l0,0
	c-5.3,0-8.8,2.8-10.8,5l-1.1-4.4h-6.6v13.8v26.3h8.6l0,0V325c0-2.2,1.9-8.3,8-8.3c6.4,0,6.6,5.3,6.6,7.2v25.7l0,0l0,0h8.6V325
	c0-2.2,1.9-8.3,8-8.3c6.4,0,6.6,5.3,6.6,7.2v25.7h8.6v-26C457.2,320.9,457.2,309,443.9,309z M541.2,324.5V335
	c0,11.6-7.2,15.5-14.1,15.5l0,0c-7.2,0-9.7-2.2-12.2-5l-1.1,4.4H507v-55.3h8.6v19.1c2.2-2.5,5.3-4.1,11.6-4.1l0,0
	C534.3,309,541.2,312.9,541.2,324.5z M532.7,324.2c0-1.1,0-7.7-7.7-7.7c-7.7,0-9.4,6.1-9.4,8.3v9.7c0,2.2,1.9,8.3,9.4,8.3
	c7.5,0,7.7-6.4,7.7-7.7C532.7,334.7,532.7,324.8,532.7,324.2z M384.3,349.6h8.6v-55.3h-8.6V349.6z M499.2,324.5V335
	c0,11.6-8.8,15.5-17.1,15.5S465,346.9,465,335v-10.5c0-11.6,8.8-15.5,17.1-15.5l0,0l0,0C490.4,309,499.2,312.9,499.2,324.5z
	 M490.7,324.2c0-1.1-0.6-7.7-8.6-7.7l0,0l0,0c-8,0-8.6,6.4-8.6,7.7v11.1c0,1.1,0.6,7.7,8.6,7.7c8,0,8.6-6.4,8.6-7.7V324.2z"/>
</svg>
