<?xml version="1.0" encoding="utf-8"?>
<!-- Generator: Adobe Illustrator 16.0.0, SVG Export Plug-In . SVG Version: 6.00 Build 0)  -->
<!DOCTYPE svg PUBLIC "-//W3C//DTD SVG 1.1//EN" "http://www.w3.org/Graphics/SVG/1.1/DTD/svg11.dtd">
<svg version="1.1" id="Layer_1" xmlns="http://www.w3.org/2000/svg" xmlns:xlink="http://www.w3.org/1999/xlink" x="0px" y="0px"
	 width="1000px" height="254.919px" viewBox="0 0 1000 254.919" enable-background="new 0 0 1000 254.919" xml:space="preserve">
<g>
	<polygon points="467.113,21.859 603.25,151.472 603.25,30.124 647.299,30.124 647.299,254.919 511.449,122.77 511.449,247.53 
		467.113,247.53 	"/>
	<path d="M718.344,154.868h40.364c9.095,0.305,25.862,9.398,25.862,28.432c0,19.607-17.056,28.127-26.995,28.988h-39.231V154.868z
		 M673.448,247.245h105.714c25.016,0,54.292-24.443,54.292-57.691c0-34.109-22.16-50.877-36.663-57.707
		c0,0,26.724-15.06,25.591-47.447c-1.42-43.491-41.784-54.292-56-54.292h-92.934V247.245z M718.072,66.483h32.963
		c11.071,0.846,24.441,9.381,24.441,24.745c0,14.486-10.228,24.713-23.597,26.42h-33.808V66.483z"/>
	<path d="M1000,75.019c-46.603-30.983-109.701,0.574-113.69,57.979c-1.69,69.623,67.088,98.324,113.69,68.203v44.641
		c-82.419,30.695-158.026-27.281-158.298-111.426C841.974,63.069,920.707-0.014,1000,31.527V75.019z"/>
	<path fill="#FFFFFF" d="M372.768,248.759c33.36,0,51.892-28.813,49.833-55.998c-3.303-35.418-35.833-48.996-53.542-46.123
		c14.829-8.232,34.597-46.938,4.522-77.395c-23.883-22.671-54.355-14.438-65.053-4.547c5.768-18.938-3.709-58.058-42.414-64.232
		c-35.012-4.116-50.232,20.167-54.764,31.701c-6.597-16.465-22.654-34.174-52.713-31.701c-38.298,4.116-50.24,40.779-44.472,62.589
		c-15.229-10.307-41.187-14.822-63.833,4.53c-29.228,29.229-13.577,68.763,2.489,78.24c-17.709-1.643-45.717,10.291-51.891,41.578
		c-6.597,38.719,23.054,61.357,51.891,61.357H372.768z"/>
	<path fill="#F37025" d="M125.198,92.281l58.895,134.654l-121.483-83.17c-30.48-20.181-24.29-54.754-7.411-70.006
		C79.083,53.592,112.85,60.58,125.198,92.281"/>
	<path fill="#CD1E4F" d="M206.405,60.58l-21.419,150.703L124.05,67.999c-13.179-35.833,16.473-59.302,36.239-59.717
		C182.929,5.825,211.343,23.104,206.405,60.58"/>
	<path fill="#6462AC" d="M299.06,67.583L238.528,211.3L219.169,81.592c-1.645-19.784,10.705-20.182,15.244-23.899
		c-0.83-2.872-7.004-2.872-7.004-2.872h-11.535c-1.229-33.759,25.119-48.581,46.538-46.954
		C285.466,8.697,311.407,35.468,299.06,67.583"/>
	<path fill="#2189CA" d="M360.826,142.937l-121.468,83.6l57.229-133.011c17.301-42.008,57.658-33.775,72.064-17.709
		C384.303,91.467,388.825,123.168,360.826,142.937"/>
	<path fill="#26B24C" d="M373.589,241.356H233.177l114.064-79.467c28-18.539,57.65-1.645,65.476,22.639
		C420.958,211.698,402.411,241.356,373.589,241.356"/>
	<path fill="#FBB616" d="M9.985,182.884c10.713-27.998,40.348-37.891,66.72-20.994l114.049,79.467H52.407
		C23.578,241.356,0.931,215.001,9.985,182.884"/>
</g>
</svg>
