<svg height="158.93318" width="468.85611" xmlns="https://www.w3.org/2000/svg"><g transform="translate(-361.68805 -462.29359)"><path d="m0 0h-12.61v12.609h-12.609v-12.609h-12.61v-12.609h12.61v-12.61h12.609v12.61h12.61z" fill="#f00" transform="matrix(4.1485983 0 0 -4.1485983 519.62538 515.60327)"/><path d="m0 0h-.981v1.688h.971c.341 0 1.139-.005 1.139-.842 0-.854-.82-.846-1.129-.846m1.727-1.038.12.048c.307.123.571.227.824.498.339.344.51.825.51 1.372 0 .7-.303 1.618-1.155 1.98-.448.189-1.133.212-1.682.212h-3.386v-6.939h2.061v2.511h.756l1.387-2.511h2.272c-.116.192-1.666 2.761-1.666 2.761z" transform="matrix(5.2716063 0 0 -5.2716063 590.48265 547.35171)"/><path d="m0 0c.265 0 .628-.167.771-.636.068-.204.082-.41.082-.659 0-.265 0-.755-.285-1.05-.157-.156-.361-.246-.559-.246-.215 0-.42.087-.56.238-.204.219-.303.562-.303 1.048 0 .231.019.427.06.614v.001.002c.178.638.653.688.794.688m-2.71-1.197c0-1.653.87-2.787 2.218-2.787.281 0 .524.04.742.123.275.105.368.21.494.354l.12.137v-.487h1.826v6.93h-1.885v-2.131-.153l-.135.12c-.204.186-.513.466-1.23.466-1.07 0-2.15-.842-2.15-2.572" transform="matrix(5.2716063 0 0 -5.2716063 654.88796 547.40814)"/><path d="m0 0c.048.22.173.768.832.768.3 0 .646-.176.744-.572l.022-.131.015-.154h-1.632zm1.883-1.446c-.217-.471-.555-.7-.983-.7-.183 0-.445.044-.657.256-.243.243-.255.497-.264.725l-.004.078h3.554c-.018.76-.048 1.573-.752 2.269-.629.609-1.432.805-1.994.805-1.633 0-2.73-1.138-2.73-2.729 0-.722.241-1.384.679-1.869.493-.543 1.204-.899 2.06-.899 1.146 0 2.034.551 2.633 1.421-.138.058-1.442.6-1.542.643" transform="matrix(5.2716063 0 0 -5.2716063 619.21025 550.32802)"/><path d="m0 0 .828 2.678.807-2.678zm2.389-2.52h2.208c-.068.178-2.555 6.85-2.587 6.937h-2.346c-.032-.086-2.58-6.757-2.649-6.937h2.206l.329 1.038h2.515z" transform="matrix(5.2716063 0 0 -5.2716063 589.89431 505.90743)"/><path d="m0 0c.02-.103.03-.207.03-.307v-2.746h1.885v2.716c0 .108 0 .331.106.529.128.241.33.364.673.364.775 0 .748-.636.748-.942v-2.667h1.884c0 .131.001 3.284.001 3.284l-.001.004c-.009.469-.02 1-.461 1.432-.31.311-.808.489-1.365.489-1.209 0-1.546-.641-1.641-.855l-.057-.132-.065.128c-.132.253-.31.544-.952.744-.301.095-.575.115-.754.115-1.048 0-1.314-.498-1.474-.758l-.137-.222v.853h-1.797v-5.082h1.886v2.768l.002.033c.009.173.021.388.214.582.143.144.321.226.558.226.299 0 .624-.145.717-.556" transform="matrix(5.2716063 0 0 -5.2716063 634.81265 503.09866)"/><path d="m0 0c.047.22.173.77.832.77.3 0 .646-.177.742-.573l.024-.133.015-.153h-1.633zm1.882-1.447c-.217-.471-.555-.698-.983-.698-.183 0-.445.043-.656.255-.243.242-.256.498-.266.726l-.003.077h3.555c-.02.761-.05 1.574-.753 2.269-.629.609-1.431.805-1.994.805-1.633 0-2.729-1.138-2.729-2.729 0-.721.24-1.384.679-1.869.492-.543 1.205-.899 2.059-.899 1.146 0 2.033.551 2.634 1.422-.137.056-1.443.599-1.543.641" transform="matrix(5.2716063 0 0 -5.2716063 677.14837 501.737)"/><path d="m0 0h-1.807v-5.121h1.875v2.403.003c.01.322.034 1.173 1.286 1.173.115 0 .3-.006.413-.013v1.633c-.704-.002-1.128-.131-1.653-.6l-.114-.101z" transform="matrix(5.2716063 0 0 -5.2716063 709.11963 492.19706)"/><path d="m722.03029 492.34618h10.69084v26.87994h-10.69084zm0-9.75243h10.69084v7.10612h-10.69084z"/><path d="m0 0c.225.225.371.474.49.724-.1.055-1.333.731-1.457.799-.104-.334-.351-.889-.961-.889-.429 0-.941.214-.941 1.237 0 .889.379 1.442.99 1.442.438 0 .749-.264.909-.81.128.072 1.35.762 1.457.824-.098.16-.227.337-.401.51-.763.775-1.746.83-2.063.83-.868 0-1.578-.305-2.052-.8-.449-.46-.707-1.181-.707-1.938 0-1.646 1.037-2.777 2.641-2.777 1.133 0 1.807.551 2.095.848" transform="matrix(5.2716063 0 0 -5.2716063 761.376 515.71577)"/><path d="m0 0h.002l.001.001c.16.055.318.091.471.127l.053.012c.197.056.388.123.573.187l.113.04v-.096c0-.178 0-.357-.104-.585-.193-.427-.699-.592-.995-.592-.416 0-.57.228-.57.406 0 .078.033.331.456.5m-.426-2.143c.919 0 1.381.32 1.629.492l.118.081v-.463h1.798c-.096.159-.119.286-.119.567v2.837c0 .296 0 .744-.288 1.114-.347.446-1.04.739-2.059.739-.769 0-1.356-.151-1.793-.378-.662-.348-.807-.871-.88-1.313.15.004 1.66.044 1.757.046.081.405.276.538.73.538.612 0 .744-.258.755-.646l.002-.054-.051-.014c-.309-.089-.528-.139-1.09-.217-.85-.113-1.411-.186-1.865-.648-.273-.274-.412-.624-.412-1.041 0-.76.466-1.64 1.768-1.64" transform="matrix(5.2716063 0 0 -5.2716063 778.40272 508.47784)"/><path d="m0 0v-2.786h1.886v3.218c0 .273 0 1.071-.49 1.55-.314.296-.745.453-1.299.453-1.065 0-1.389-.517-1.564-.765l-.133-.188v.824h-1.777v-5.092h1.885v2.716c0 .224.01.904.763.904.757 0 .729-.607.729-.834" transform="matrix(5.2716063 0 0 -5.2716063 817.50539 504.50676)"/><path d="m0 0c-.22.355-.337.847-.337 1.423 0 .269 0 1.089.541 1.61.147.146.469.393.98.393.936 0 1.321-.782 1.495-1.188.117.059 1.62.808 1.734.865-.134.245-.321.565-.589.84-.688.709-1.658 1.113-2.728 1.113-1.069 0-1.976-.414-2.623-1.17-.572-.669-.901-1.648-.901-2.59 0-.933.303-1.856.852-2.497.633-.741 1.558-1.145 2.672-1.145 1.048 0 1.987.369 2.642 1.015.307.306.524.702.686 1.007-.114.055-1.64.794-1.761.852-.334-.916-.991-1.176-1.468-1.176-.526 0-.929.218-1.195.648" transform="matrix(5.2716063 0 0 -5.2716063 695.93751 556.5148)"/><path d="m0 0c-.879 0-1.012.886-1.012 1.414 0 .507.131 1.361.999 1.383.273.009.495-.069.663-.231.232-.225.35-.606.35-1.132 0-1.185-.544-1.434-1-1.434m2.131 3.422c-.223.211-.873.719-2.083.73-.913.005-1.672-.28-2.193-.799-.486-.482-.742-1.208-.742-1.998 0-.711.235-1.411.661-1.869.494-.534 1.243-.83 2.167-.83.909 0 1.667.271 2.19.758.506.472.773 1.189.773 1.971 0 .764-.295 1.579-.773 2.037" transform="matrix(5.2716063 0 0 -5.2716063 757.89461 561.68998)"/><path d="m0 0c-.24.124-.453.173-1.348.377l-.04.01c-.669.165-.828.2-.828.411 0 .126.065.334.502.334.536 0 1.015-.291 1.355-.503.068.061.909.829 1.013.922-.244.185-.626.475-1.267.628-.395.091-.766.136-1.132.136-.763 0-1.351-.209-1.749-.587-.311-.302-.49-.761-.49-1.163 0-1.033.881-1.317 1.356-1.455.455-.135.872-.204 1.05-.233.198-.029.569-.077.569-.375 0-.263-.301-.382-.598-.382-.273 0-.545.056-.832.172-.371.158-.612.359-.789.533-.083-.077-.941-.866-1.041-.957.419-.341 1.263-1.042 2.681-1.042 1.621 0 2.347.918 2.347 1.882 0 .552-.27 1.029-.759 1.292" transform="matrix(5.2716063 0 0 -5.2716063 797.42318 552.03448)"/><path d="m0 0c-.239.124-.452.173-1.349.377l-.039.01c-.668.165-.828.2-.828.411 0 .126.066.334.502.334.536 0 1.015-.291 1.356-.503.067.061.908.829 1.013.922-.245.185-.627.475-1.267.628-.396.091-.766.136-1.133.136-.763 0-1.351-.209-1.749-.587-.311-.302-.489-.761-.489-1.163 0-1.033.882-1.317 1.354-1.455.456-.135.873-.204 1.051-.233.199-.029.568-.077.568-.375 0-.263-.3-.382-.597-.382-.273 0-.545.056-.833.172-.37.158-.61.359-.788.533-.083-.077-.941-.866-1.041-.957.419-.341 1.262-1.042 2.681-1.042 1.622 0 2.346.918 2.346 1.882 0 .552-.269 1.029-.758 1.292" transform="matrix(5.2716063 0 0 -5.2716063 825.5483 552.03448)"/><path d="m0 0h-1.807v-5.121h1.876v2.403.004c.009.321.034 1.174 1.285 1.174.115 0 .301-.008.414-.016v1.635c-.704-.004-1.128-.132-1.654-.602l-.114-.1z" transform="matrix(5.2716063 0 0 -5.2716063 731.45754 540.78808)"/></g></svg>