<svg enable-background="new 0 0 1000 254.919" height="254.919" viewBox="0 0 1000 254.919" width="1000" xmlns="https://www.w3.org/2000/svg"><path d="m467.113 21.859 136.137 129.613v-121.348h44.049v224.795l-135.85-132.149v124.76h-44.336z"/><path d="m718.344 154.868h40.364c9.095.305 25.862 9.398 25.862 28.432 0 19.607-17.056 28.127-26.995 28.988h-39.231zm-44.896 92.377h105.714c25.016 0 54.292-24.443 54.292-57.691 0-34.109-22.16-50.877-36.663-57.707 0 0 26.724-15.06 25.591-47.447-1.42-43.491-41.784-54.292-56-54.292h-92.934zm44.624-180.762h32.963c11.071.846 24.441 9.381 24.441 24.745 0 14.486-10.228 24.713-23.597 26.42h-33.808v-51.165z"/><path d="m1000 75.019c-46.603-30.983-109.701.574-113.69 57.979-1.69 69.623 67.088 98.324 113.69 68.203v44.641c-82.419 30.695-158.026-27.281-158.298-111.426.272-71.347 79.005-134.43 158.298-102.889z"/><path d="m372.768 248.759c33.36 0 51.892-28.813 49.833-55.998-3.303-35.418-35.833-48.996-53.542-46.123 14.829-8.232 34.597-46.938 4.522-77.395-23.883-22.671-54.355-14.438-65.053-4.547 5.768-18.938-3.709-58.058-42.414-64.232-35.012-4.116-50.232 20.167-54.764 31.701-6.597-16.465-22.654-34.174-52.713-31.701-38.298 4.116-50.24 40.779-44.472 62.589-15.229-10.307-41.187-14.822-63.833 4.53-29.228 29.229-13.577 68.763 2.489 78.24-17.709-1.643-45.717 10.291-51.891 41.578-6.597 38.719 23.054 61.357 51.891 61.357h319.947z" fill="#fff"/><path d="m125.198 92.281 58.895 134.654-121.483-83.17c-30.48-20.181-24.29-54.754-7.411-70.006 23.884-20.167 57.651-13.179 69.999 18.522" fill="#f37025"/><path d="m206.405 60.58-21.419 150.703-60.936-143.284c-13.179-35.833 16.473-59.302 36.239-59.717 22.64-2.457 51.054 14.822 46.116 52.298" fill="#cd1e4f"/><path d="m299.06 67.583-60.532 143.717-19.359-129.708c-1.645-19.784 10.705-20.182 15.244-23.899-.83-2.872-7.004-2.872-7.004-2.872h-11.535c-1.229-33.759 25.119-48.581 46.538-46.954 23.054.83 48.995 27.601 36.648 59.716" fill="#6462ac"/><path d="m360.826 142.937-121.468 83.6 57.229-133.011c17.301-42.008 57.658-33.775 72.064-17.709 15.652 15.65 20.174 47.351-7.825 67.12" fill="#2189ca"/><path d="m373.589 241.356h-140.412l114.064-79.467c28-18.539 57.65-1.645 65.476 22.639 8.241 27.17-10.306 56.828-39.128 56.828" fill="#26b24c"/><path d="m9.985 182.884c10.713-27.998 40.348-37.891 66.72-20.994l114.049 79.467h-138.347c-28.829-.001-51.476-26.356-42.422-58.473" fill="#fbb616"/></svg>