<svg height="24" viewBox="0 0 80 24" width="80" xmlns="http://www.w3.org/2000/svg"><path d="m25.1 5.4h4l3.1 8.3h.1l2.8-8.3h3.8l-4.8 12.2h-4z" fill="#f48f00"/><path d="m10.4 8.4h-3.7v4.1c0 .7.1 1.6.7 2s1.5.3 2.2.2c.4 0 .6-.1.8-.3v3.1c-.5.1-.9.2-1.4.3-2.6.3-6.4-.2-6.4-3.6v-5.8h-2.6v-3h2.6v-3.6h4.1v3.6h3.7zm10.5-3h3.7v12.2h-3.7zm-.2-3.3c0-1.1.9-2 2-2s2 .9 2 2-.9 2-2 2c-1 0-2-.9-2-2" fill="#007fad"/><path d="m67.1 11.5c0 1.6 1 3.1 2.7 3.1 1.8 0 2.7-1.4 2.7-3.1 0-1.6-1-3.1-2.7-3.1-1.8 0-2.7 1.4-2.7 3.1m-3.4 0c0-2.6 1.4-5.1 3.9-6s5.5-.2 7.1 1.9c1.5 2 1.7 5 .5 7.3-1.2 2.4-4 3.5-6.6 3-3.1-.5-4.9-3.2-4.9-6.2" fill="#c94a30"/><path d="m77.7 8.8c-.9 0-1.6-.7-1.6-1.6s.7-1.6 1.6-1.6 1.6.7 1.6 1.6c.1.8-.7 1.6-1.6 1.6m0-3.7c-1.1 0-2 .9-2 2s.9 2 2 2 2-.9 2-2-.8-2-2-2m.3 1.7c0-.2-.2-.2-.4-.2h-.2v.4h.1c.3 0 .5 0 .5-.2m.8 1.3h-.6l-.5-.7h-.2v.7h-.5v-1.9h1.1c.4.1.6.5.3.9-.1.1-.2.2-.3.2z" fill="#cdd0d2"/><path d="m59.7 5.3v1.7h-.1c-.1-.1-.2-.2-.4-.5-2.4-2.1-6.6-1.7-8.1 1.3-.8 1.5-.9 3.4-.7 5.1.2 1.5.8 3.2 2.1 4.1 1.5 1 3.5 1.2 5.2.5.8-.3 1.3-.9 1.5-1.2v1.2c0 .9-.2 1.6-.7 2.1-1.1 1.1-3.1 1-4.5.7-.7-.2-1.5-.5-2.2-1l-1.7 2.7c1 .7 1.9 1.1 2.9 1.4 2.7.7 6.4.7 8.4-1.4 1.2-1.2 1.6-2.9 1.6-5.3v-11.4zm-.9 8.4c-1 1.2-3 1.2-4 0s-1-3.3 0-4.5 3-1.2 4 0 1 3.3 0 4.5c-.5.6.5-.6 0 0z" fill="#c94a30"/><path d="m11.4 5.4h3.8v2c.4-.8.9-1.3 1.4-1.7 1.2-.8 3.1-.5 3.3-.4v3.4c-.8-.2-2.4-.5-3.5.2-.7.4-1.3 1-1.3 3.7v5.1h-3.8v-12.3z" fill="#007fad"/><path d="m42.4 12.7c-.7.5-1.3 1.4-.6 2.1s1.9.6 2.7.3c.9-.3 1.6-1 1.6-2.1v-.8c.1.1-2.7-.1-3.7.5zm3.8 3.4c-.5.6-1 1.1-1.7 1.4-2.7 1.1-6.5 0-6.5-3.3 0-3.5 3.8-4.2 6.5-4.3h1.7c0-.7-.2-1.2-.7-1.6-.9-.8-2.3-.7-3.4-.2-.5.3-1 .6-1.4 1.1l-2-2.1c.7-.6 1.5-1.1 2.5-1.5 1.6-.6 3.6-.7 5.2-.2 1.6.4 2.6 1.7 3 3.3.2.8.2 1.7.2 2.7v6.2h-3.4z" fill="#f48f00"/><path d="m0 0h80v24h-80z" fill="none"/></svg>